<svg width="16" height="18" viewBox="0 0 16 18" fill="none" xmlns="http://www.w3.org/2000/svg">
<g clip-path="url(#clip0_2498_8205)">
<path d="M13.5309 6.8824V2.27379H9.09662C9.09662 0.228106 6.99282 0 6.99282 0C4.66236 0 4.6057 2.27379 4.6057 2.27379H0.0566632L0 16.829H6.90855V18H15.8003V6.8824H13.5309ZM3.37945 3.29082H5.59658L5.62128 2.29994C5.64336 2.06215 5.71094 1.83082 5.82032 1.61853C5.96561 1.34684 6.22423 1.03737 6.92308 1.01848C7.13471 1.05955 7.33801 1.13566 7.52458 1.24368C7.90814 1.47179 8.07959 1.78997 8.07959 2.27379V3.29082H10.3156V4.63621H3.37945V3.29082ZM6.90855 15.8119H1.01703L1.06498 3.29082H2.35806V5.65324H11.3326V3.29082H12.508V6.8824H6.90855V15.8119ZM14.7833 16.983H7.92558V7.89943H14.7833V16.983Z" fill="#796B5F"/>
<path d="M11.3549 15.6624C11.9921 15.663 12.6151 15.4745 13.1452 15.1209C13.6753 14.7674 14.0886 14.2645 14.3329 13.676C14.5771 13.0874 14.6413 12.4397 14.5173 11.8147C14.3934 11.1897 14.0868 10.6154 13.6365 10.1647C13.1861 9.71391 12.6122 9.40684 11.9873 9.28232C11.3624 9.1578 10.7146 9.22142 10.1258 9.46513C9.53707 9.70884 9.03384 10.1217 8.67977 10.6515C8.32571 11.1812 8.13672 11.8041 8.13672 12.4413C8.13672 13.2951 8.47568 14.1139 9.07913 14.7179C9.68257 15.3219 10.5011 15.6616 11.3549 15.6624ZM11.3549 10.2372C11.7909 10.2367 12.2174 10.3654 12.5802 10.6073C12.943 10.8491 13.226 11.1931 13.3932 11.5958C13.5605 11.9985 13.6046 12.4418 13.5199 12.8695C13.4351 13.2972 13.2255 13.6902 12.9173 13.9988C12.6092 14.3073 12.2165 14.5175 11.7889 14.6028C11.3612 14.6881 10.9179 14.6446 10.515 14.4779C10.1121 14.3111 9.76772 14.0286 9.5254 13.6661C9.28309 13.3036 9.15375 12.8773 9.15375 12.4413C9.15452 11.8575 9.38658 11.2978 9.79912 10.8847C10.2117 10.4716 10.7711 10.2388 11.3549 10.2372Z" fill="#796B5F"/>
<path d="M10.5859 13.7459L11.3749 12.957L12.1434 13.7255L12.6403 13.2301L11.8717 12.4615L12.6607 11.6726L12.1231 11.1365L11.3342 11.9254L10.5656 11.1568L10.0701 11.6523L10.8387 12.4208L10.0498 13.2098L10.5859 13.7459Z" fill="#796B5F"/>
</g>
<defs>
<clipPath id="clip0_2498_8205">
<rect width="15.8003" height="18" fill="white"/>
</clipPath>
</defs>
</svg>
