<svg width="24" height="24" viewBox="0 0 24 24" fill="none" xmlns="http://www.w3.org/2000/svg">
<g clip-path="url(#clip0_1034_2313)">
<path d="M23.5997 0.333328H11.333C10.933 0.333328 10.5997 0.666662 10.5997 1.06666V5.13333H1.06634C0.666341 5.13333 0.333008 5.46666 0.333008 5.86666V23.5667C0.333008 24 0.666341 24.3333 1.06634 24.3333H13.333C13.733 24.3333 14.0663 24 14.0663 23.6V19.5333H23.5663C23.9663 19.5333 24.2997 19.2 24.2997 18.8V1.06666C24.333 0.666662 23.9997 0.333328 23.5997 0.333328ZM12.5663 22.8333H1.83301V15.2333H7.63301L5.23301 17.6333C5.03301 17.8333 5.03301 18.1333 5.23301 18.3333C5.33301 18.4333 5.46634 18.4667 5.59967 18.4667C5.73301 18.4667 5.86634 18.4333 5.96634 18.3333L9.23301 15.0667C9.26634 15.0333 9.29967 14.9667 9.33301 14.9C9.39967 14.7667 9.39967 14.6333 9.33301 14.5333C9.29967 14.4667 9.26634 14.4 9.23301 14.3667L5.96634 11.1C5.76634 10.9 5.46634 10.9 5.26634 11.1C5.06634 11.3 5.06634 11.6 5.26634 11.8L7.66634 14.2H1.83301V6.63333H11.333H12.5663V22.8333ZM14.0663 18.0333V5.89999C14.0663 5.49999 13.733 5.16666 13.333 5.16666H12.0997V1.83333H22.833V9.43333H17.033L19.433 7.03333C19.633 6.83333 19.633 6.53333 19.433 6.33333C19.233 6.13333 18.933 6.13333 18.733 6.33333L15.4663 9.59999C15.433 9.63333 15.3997 9.69999 15.3663 9.76666C15.2997 9.89999 15.2997 10.0333 15.3663 10.1333C15.3997 10.2 15.433 10.2667 15.4663 10.3L18.733 13.5667C18.833 13.6667 18.9663 13.7 19.0997 13.7C19.233 13.7 19.3663 13.6667 19.4663 13.5667C19.6663 13.3667 19.6663 13.0667 19.4663 12.8667L17.0663 10.4667H22.8663V18.0667H14.0663V18.0333Z" fill="#796B5F"/>
</g>
<defs>
<clipPath id="clip0_1034_2313">
<rect width="24" height="24" fill="white"/>
</clipPath>
</defs>
</svg>
