<?xml version="1.0" encoding="utf-8"?>
<!-- Generator: Adobe Illustrator 26.0.2, SVG Export Plug-In . SVG Version: 6.00 Build 0)  -->
<svg version="1.1" id="Layer_1" xmlns="http://www.w3.org/2000/svg" xmlns:xlink="http://www.w3.org/1999/xlink" x="0px" y="0px"
	 viewBox="0 0 24 24" style="enable-background:new 0 0 24 24;" xml:space="preserve">
<style type="text/css">
	.st0{fill:#FFFFFF;}
</style>
<g>
	<path class="st0" d="M23.3,0H11c-0.4,0-0.7,0.3-0.7,0.7v4.1H0.7C0.3,4.8,0,5.1,0,5.5v17.7C0,23.7,0.3,24,0.7,24H13
		c0.4,0,0.7-0.3,0.7-0.7v-4.1h9.5c0.4,0,0.7-0.3,0.7-0.7V0.7C24,0.3,23.7,0,23.3,0z M12.2,22.5H1.5v-7.6h5.8l-2.4,2.4
		c-0.2,0.2-0.2,0.5,0,0.7c0.1,0.1,0.2,0.1,0.4,0.1c0.1,0,0.3,0,0.4-0.1L9,14.7c0,0,0.1-0.1,0.1-0.2c0.1-0.1,0.1-0.3,0-0.4
		C9.1,14,9,14,9,13.9l-3.3-3.3c-0.2-0.2-0.5-0.2-0.7,0s-0.2,0.5,0,0.7l2.4,2.4H1.5V6.3H11h1.2V22.5z M13.7,17.7V5.6
		c0-0.4-0.3-0.7-0.7-0.7h-1.2V1.5h10.7v7.6h-5.8l2.4-2.4c0.2-0.2,0.2-0.5,0-0.7s-0.5-0.2-0.7,0l-3.3,3.3c0,0-0.1,0.1-0.1,0.2
		c0,0.1,0,0.2,0,0.3s0.1,0.1,0.1,0.2l3.3,3.3c0.1,0.1,0.2,0.1,0.4,0.1c0.1,0,0.3,0,0.4-0.1c0.2-0.2,0.2-0.5,0-0.7l-2.4-2.4h5.8v7.6
		L13.7,17.7L13.7,17.7z"/>
</g>
</svg>
