<svg width="24" height="24" viewBox="0 0 24 24" fill="none" xmlns="http://www.w3.org/2000/svg">
<path d="M13.5512 7.58907L17.4043 1.6922C17.334 1.69689 17.2637 1.69689 17.1887 1.71564L13.8934 2.4047L10.0215 8.3297L13.5512 7.58907Z" fill="#68D0C2"/>
<path d="M7.42813 8.87343L11.3 2.94843L7.77031 3.68905L3.89844 9.61405L7.42813 8.87343Z" fill="#68D0C2"/>
<path d="M19.2832 2.24066L16.1426 7.04535L20.6613 6.09847L20.1457 3.6516C20.0285 3.07035 19.7098 2.58754 19.2832 2.24066Z" fill="#68D0C2"/>
<path d="M5.17424 4.23285L2.49299 4.79535C1.13831 5.08129 0.275806 6.40316 0.557056 7.75785L1.07268 10.2047L1.30237 10.1578L5.17424 4.23285Z" fill="#68D0C2"/>
<path d="M21.0566 19.1625V14.8031C20.841 14.7 20.6723 14.5078 20.5973 14.2781H18.6426C18.5535 14.55 18.3332 14.7656 18.0566 14.85V21.3328C18.2441 21.3891 18.4035 21.5063 18.5113 21.6609H18.5535C19.9363 21.6656 21.0566 20.5453 21.0566 19.1625Z" fill="#68D0C2"/>
<path d="M16.8332 13.7156H17.1004C17.4285 13.7156 17.6957 13.4578 17.6957 13.1391V12.8719H21.0566V10.4062H1.04102V19.1625C1.04102 20.5453 2.16133 21.6656 3.54414 21.6656H16.8379V13.7156H16.8332ZM12.9332 16.6641L8.37227 19.3781C8.31133 19.4109 8.25508 19.4344 8.18945 19.4344C8.01133 19.4344 7.86602 19.2891 7.86602 19.1063V13.4672C7.86602 13.2891 8.01133 13.1391 8.18945 13.1391C8.25508 13.1391 8.31133 13.1578 8.36758 13.1906L12.9332 15.9094C13.041 16.0031 13.1113 16.1344 13.1113 16.2891C13.1113 16.4391 13.041 16.575 12.9332 16.6641Z" fill="#68D0C2"/>
<path d="M18.2305 13.4016L17.293 14.3484V21.8859L18.3102 22.8H20.9773L21.9852 21.7875L21.9008 14.2828L20.9352 13.4016H18.2305Z" fill="white"/>
<path d="M20.8918 13.6125C21.0277 13.9594 21.309 14.2359 21.6652 14.3719V21.8062C21.3043 21.9422 21.0184 22.2328 20.8871 22.5984H18.3605C18.2293 22.2281 17.9434 21.9422 17.5824 21.8062V14.3719C17.934 14.2406 18.2199 13.9594 18.3559 13.6125H20.8918ZM21.2762 13.139H17.9621C17.9621 13.6078 17.5777 13.9828 17.0996 13.9828V22.2C17.5777 22.2 17.9621 22.575 17.9621 23.0765H21.2762C21.2762 22.575 21.6605 22.2 22.1387 22.2V13.9828C21.6605 13.9828 21.2762 13.6078 21.2762 13.139Z" fill="#68D0C2"/>
<path d="M22.8086 12.1172H19.4945C19.4945 12.3281 19.4195 12.5156 19.293 12.6609H21.7539V13.1391C21.7539 13.3406 21.9273 13.5094 22.1383 13.5094H22.6164V22.0594H22.8086C22.8086 21.5578 23.193 21.1828 23.6711 21.1828V12.9609C23.193 12.9609 22.8086 12.5859 22.8086 12.1172Z" fill="#68D0C2"/>
<path d="M18.5258 16.2938H18.0898V16.4906H18.5258V16.2938Z" fill="#68D0C2"/>
<path d="M19.4027 16.2938H18.9668V16.4906H19.4027V16.2938Z" fill="#68D0C2"/>
<path d="M20.2738 16.2938H19.8379V16.4906H20.2738V16.2938Z" fill="#68D0C2"/>
<path d="M21.1508 16.2938H20.7148V16.4906H21.1508V16.2938Z" fill="#68D0C2"/>
<path d="M19.8988 14.7516H19.3457V15.6516H19.8988V14.7516Z" fill="#68D0C2"/>
<path d="M18.8637 14.7516H18.3105V15.6516H18.8637V14.7516Z" fill="#68D0C2"/>
<path d="M20.9359 14.7516H20.3828V15.6516H20.9359V14.7516Z" fill="#68D0C2"/>
</svg>
