<svg width="24" height="24" viewBox="0 0 24 24" fill="none" xmlns="http://www.w3.org/2000/svg">
<g clip-path="url(#clip0_93_419)">
<path d="M0 17.4083C0.0933333 17.1811 0.186667 16.9538 0.28 16.7131C0.44 16.2986 0.773333 16.1382 1.2 16.2852C1.69333 16.4457 1.69333 16.4457 2.01333 16.0579C2.12 15.9376 2.24 15.8173 2.36 15.7103C2.48 15.6167 2.50667 15.5231 2.42667 15.3894C2.36 15.2557 2.29333 15.122 2.24 14.9883C2.13333 14.6808 2.24 14.3599 2.53333 14.1994C2.77333 14.0657 3.04 13.9454 3.29333 13.8384C3.61333 13.7047 3.98667 13.8384 4.09333 14.1593C4.25333 14.6139 4.49333 14.6941 4.97333 14.6674C5.44 14.654 5.68 14.5604 5.8 14.0925C5.89333 13.7448 6.26667 13.6111 6.62667 13.7315C6.85333 13.8117 7.08 13.8919 7.30667 13.9855C7.66667 14.1326 7.81333 14.4668 7.69333 14.8546C7.64 15.0284 7.50667 15.229 7.54667 15.376C7.58667 15.5231 7.8 15.6033 7.93333 15.7237C8.09333 15.8707 8.22667 16.1114 8.41333 16.1515C8.58667 16.1916 8.78667 16.0045 8.98667 15.9376C9.29333 15.8306 9.61333 15.9376 9.77333 16.2317C9.90667 16.4724 10.0133 16.7265 10.12 16.9805C10.2533 17.3148 10.1333 17.6891 9.8 17.8095C9.34667 17.9699 9.26667 18.2106 9.30667 18.6652C9.33333 19.1198 9.38667 19.3872 9.88 19.5075C10.2267 19.5877 10.3733 19.9755 10.2533 20.3365C10.1733 20.5772 10.0933 20.8044 9.98667 21.0451C9.84 21.3927 9.49333 21.5799 9.14667 21.4061C8.73333 21.2056 8.46667 21.259 8.24 21.6602C8.13333 21.834 7.86667 21.9409 7.82667 22.1148C7.78667 22.2886 7.97333 22.4891 8.04 22.6897C8.16 23.0239 8.04 23.3448 7.72 23.5053C7.49333 23.6256 7.26667 23.7192 7.04 23.8262C6.68 23.9733 6.30667 23.8663 6.17333 23.5053C6.01333 23.0641 5.78667 22.9972 5.33333 23.0106C4.84 23.0239 4.6 23.1175 4.46667 23.6122C4.38667 23.9465 4.01333 24.0668 3.68 23.9599C3.44 23.8797 3.21333 23.7994 2.97333 23.7058C2.6 23.5588 2.41333 23.2111 2.58667 22.8501C2.78667 22.4356 2.66667 22.2351 2.34667 21.9276C1.98667 21.5799 1.73333 21.473 1.29333 21.727C1.02667 21.8875 0.68 21.7404 0.52 21.473C0.373333 21.2189 0.253333 20.9382 0.146667 20.6707C0.0266667 20.3499 0.146667 19.9755 0.493333 19.8685C0.96 19.7214 1.08 19.454 0.96 19.0128C0.96 18.9861 0.96 18.9727 0.96 18.946C0.96 18.7721 1.02667 18.5448 0.946667 18.4245C0.866667 18.3042 0.653333 18.2774 0.493333 18.2239C0.24 18.1304 0.106667 17.9432 0 17.7292C0 17.6223 0 17.5153 0 17.4083ZM7.74667 18.839C7.74667 17.4083 6.57333 16.2317 5.13333 16.2317C3.72 16.2317 2.54667 17.4083 2.54667 18.839C2.54667 20.2696 3.72 21.4462 5.16 21.4462C6.6 21.4462 7.76 20.283 7.76 18.8256L7.74667 18.839Z" fill="white"/>
<path d="M9.48 4.63956C9.94667 4.14485 10.3867 3.70362 10.8133 3.24903C10.8533 3.19555 10.88 3.08858 10.8533 3.02173C10.76 2.78106 10.64 2.55376 10.5333 2.3131C10.2533 1.67131 10.48 1.08301 11.0933 0.775491C11.44 0.601675 11.8 0.441229 12.16 0.280784C12.7733 0.0133742 13.36 0.240672 13.6533 0.828973C13.7733 1.05627 13.88 1.29694 13.9733 1.53761C14.0267 1.65794 14.08 1.69805 14.2133 1.68468C14.7867 1.65794 15.36 1.64457 15.9467 1.60446C16.0133 1.60446 16.1067 1.53761 16.1333 1.48413C16.2267 1.25683 16.3067 1.01616 16.4 0.788862C16.6533 0.120338 17.2533 -0.173812 17.9333 0.0668561C18.28 0.18719 18.64 0.320895 18.9867 0.4546C19.6133 0.708639 19.88 1.28357 19.6667 1.92535C19.5867 2.17939 19.48 2.42006 19.4 2.6741C19.3867 2.74095 19.4133 2.84791 19.4667 2.9014C19.8933 3.30251 20.32 3.70362 20.7467 4.09137C20.8 4.13148 20.9067 4.15822 20.96 4.13148C21.2 4.03789 21.4267 3.91755 21.6667 3.81059C22.32 3.52981 22.9067 3.74374 23.2133 4.37215C23.3867 4.71978 23.5467 5.06741 23.6933 5.41505C23.9733 6.05683 23.7467 6.64513 23.12 6.93928C22.8933 7.04624 22.6667 7.15321 22.44 7.2468C22.32 7.30028 22.2933 7.35376 22.3067 7.48747C22.3333 8.0624 22.36 8.62396 22.36 9.19889C22.36 9.31922 22.3867 9.38608 22.5067 9.42619C22.7467 9.50641 22.9867 9.6 23.2267 9.6936C23.8667 9.94764 24.1333 10.5226 23.9067 11.1777C23.7867 11.5387 23.6533 11.8997 23.5067 12.2607C23.2533 12.9025 22.68 13.1699 22.0267 12.9426C21.7333 12.849 21.4533 12.7287 21.1867 12.6351C20.72 13.1432 20.2533 13.6379 19.7867 14.1593C19.8933 14.3866 20.0133 14.6407 20.1333 14.9081C20.44 15.6033 20.2267 16.1916 19.5333 16.5259C19.2133 16.673 18.8933 16.8201 18.5733 16.9671C17.9067 17.2613 17.3067 17.0474 17 16.3788C16.8933 16.1515 16.8 15.9242 16.68 15.6969C16.6533 15.6435 16.5467 15.5766 16.48 15.59C15.92 15.6033 15.36 15.6435 14.8 15.6568C14.64 15.6568 14.5733 15.6969 14.52 15.8574C14.44 16.1114 14.3467 16.3655 14.24 16.6061C14 17.1677 13.4533 17.4217 12.8667 17.2345C12.4533 17.1008 12.04 16.9538 11.64 16.7799C11.08 16.5393 10.8267 15.9911 11.0133 15.4028C11.0933 15.122 11.2133 14.8546 11.3067 14.5872C11.32 14.5203 11.2933 14.4134 11.24 14.3599C10.8267 13.9588 10.3867 13.571 9.97333 13.1833C9.88 13.0897 9.82667 13.0763 9.70667 13.1298C9.48 13.2368 9.25333 13.3437 9.02667 13.4507C8.38667 13.7315 7.78667 13.5176 7.48 12.8758C7.32 12.5415 7.16 12.1939 7.01333 11.8462C6.73334 11.1911 6.94667 10.6028 7.57333 10.2953C7.8 10.1883 8.04 10.0813 8.26667 9.96101C8.32 9.93426 8.37333 9.8273 8.37333 9.76045C8.37333 9.18552 8.33333 8.61059 8.32 8.02229C8.32 7.90195 8.29333 7.8351 8.17333 7.80836C7.92 7.72814 7.66667 7.63454 7.42667 7.52758C6.81333 7.27354 6.54667 6.71198 6.76 6.0702C6.88 5.69583 7.01333 5.33482 7.16 4.97382C7.41333 4.34541 8.01333 4.078 8.65333 4.29193C8.93333 4.38552 9.22667 4.50585 9.45333 4.58608L9.48 4.63956ZM15.3333 13.0496C17.6 13.1298 19.6533 11.1777 19.7333 8.86463C19.8267 6.36435 17.9333 4.35878 15.4133 4.26518C13.1067 4.18496 11.0667 6.11031 10.9733 8.45014C10.88 10.8836 12.7733 12.9961 15.32 13.0362L15.3333 13.0496Z" fill="white"/>
<path d="M12.4133 22.9571C12.2667 22.8234 12.1467 22.6763 12 22.5694C11.9467 22.5292 11.84 22.5426 11.7733 22.5694C11.5867 22.6496 11.3867 22.7298 11.24 22.5426C11.0667 22.3287 10.9067 22.088 10.9867 21.7939C11.0133 21.6869 11.1333 21.5799 11.24 21.5532C11.4267 21.4863 11.4667 21.366 11.4267 21.1922C11.4267 21.1655 11.4267 21.1387 11.4267 21.1253C11.48 20.8579 11.3733 20.7109 11.12 20.6306C10.9333 20.5772 10.8533 20.39 10.92 20.1894C10.96 20.0557 11 19.9354 11.0533 19.815C11.16 19.5877 11.3333 19.4941 11.5733 19.6011C11.7733 19.6813 11.9067 19.668 12.0133 19.4674C12.04 19.4273 12.08 19.3738 12.12 19.3471C12.2667 19.2401 12.28 19.1331 12.2 18.9727C12.0533 18.6785 12.12 18.5047 12.4133 18.371C12.5067 18.3309 12.6 18.2774 12.6933 18.2507C12.92 18.1705 13.1067 18.2106 13.2 18.4379C13.2933 18.6785 13.4267 18.7454 13.6533 18.6785C13.6533 18.6785 13.6667 18.6785 13.68 18.6785C13.92 18.732 14.08 18.6384 14.1333 18.3844C14.1333 18.3443 14.1733 18.3042 14.2133 18.2641C14.3733 18.0902 14.6533 18.117 15.0133 18.3175C15.2 18.4245 15.2533 18.585 15.1867 18.8256C15.16 18.9192 15.1067 19.0529 15.1467 19.1064C15.2667 19.2668 15.44 19.3872 15.6 19.5075C15.6267 19.5343 15.7333 19.4808 15.7867 19.454C16.12 19.3203 16.2667 19.3738 16.4267 19.6947C16.4533 19.7616 16.4933 19.8284 16.52 19.8819C16.64 20.1627 16.5867 20.3499 16.3067 20.4702C16.1333 20.537 16.0533 20.6306 16.12 20.8178C16.1333 20.8579 16.1333 20.9114 16.12 20.9515C16.08 21.1655 16.16 21.2858 16.3867 21.3526C16.6267 21.4195 16.6933 21.62 16.6267 21.8607C16.6 21.9543 16.56 22.0479 16.52 22.1415C16.4 22.4356 16.24 22.5159 15.9467 22.3955C15.7733 22.3287 15.6533 22.3287 15.56 22.5025C15.5333 22.5426 15.5067 22.5827 15.4667 22.6095C15.28 22.7298 15.2667 22.8769 15.3733 23.0774C15.4933 23.3047 15.4133 23.4785 15.1867 23.5989C15.0933 23.6524 15 23.6925 14.9067 23.7192C14.6133 23.8395 14.44 23.7861 14.32 23.4919C14.24 23.3181 14.1467 23.2512 13.9733 23.3047C13.92 23.3181 13.8667 23.3315 13.8133 23.3047C13.6 23.2512 13.52 23.3582 13.4533 23.5454C13.36 23.8128 13.1867 23.8797 12.92 23.7994C12.8533 23.7727 12.7867 23.7593 12.72 23.7326C12.36 23.5989 12.2933 23.4518 12.4133 23.0908C12.44 23.0373 12.4533 22.9705 12.4667 22.917L12.4133 22.9571ZM15.1867 21.0451C15.1867 20.2429 14.56 19.5744 13.7733 19.5744C12.96 19.5744 12.32 20.1894 12.2933 21.0184C12.2667 21.7939 12.9467 22.4891 13.72 22.4891C14.52 22.4891 15.1733 21.8473 15.1867 21.0585V21.0451Z" fill="white"/>
</g>
<defs>
<clipPath id="clip0_93_419">
<rect width="24" height="24" fill="white"/>
</clipPath>
</defs>
</svg>
