<svg width="20" height="20" viewBox="0 0 20 20" fill="none" xmlns="http://www.w3.org/2000/svg">
<path d="M15.5563 4.13125H13.9438V2.79375C13.9438 2.38432 13.7812 1.99166 13.4917 1.70215C13.2022 1.41264 12.8095 1.25 12.4001 1.25H4.2376C3.82817 1.25 3.43551 1.41264 3.146 1.70215C2.85649 1.99166 2.69385 2.38432 2.69385 2.79375V14.325C2.69385 14.7344 2.85649 15.1271 3.146 15.4166C3.43551 15.7061 3.82817 15.8687 4.2376 15.8687H6.05635V17C6.05635 17.2298 6.10161 17.4574 6.18956 17.6697C6.2775 17.882 6.40641 18.0749 6.56891 18.2374C6.73141 18.3999 6.92433 18.5288 7.13665 18.6168C7.34897 18.7047 7.57653 18.75 7.80635 18.75H15.5563C15.7862 18.75 16.0137 18.7047 16.226 18.6168C16.4384 18.5288 16.6313 18.3999 16.7938 18.2374C16.9563 18.0749 17.0852 17.882 17.1731 17.6697C17.2611 17.4574 17.3063 17.2298 17.3063 17V5.88125C17.3063 5.41712 17.122 4.972 16.7938 4.64381C16.4656 4.31562 16.0205 4.13125 15.5563 4.13125ZM4.2376 14.7C4.13756 14.7 4.04152 14.6607 3.9702 14.5906C3.89888 14.5204 3.85799 14.425 3.85635 14.325V2.79375C3.85799 2.69372 3.89888 2.59835 3.9702 2.5282C4.04152 2.45804 4.13756 2.41874 4.2376 2.41875H12.4001C12.5001 2.41874 12.5962 2.45804 12.6675 2.5282C12.7388 2.59835 12.7797 2.69372 12.7813 2.79375V4.13125H7.78135C7.31722 4.13125 6.8721 4.31562 6.54391 4.64381C6.21572 4.972 6.03135 5.41712 6.03135 5.88125V14.7H4.2376ZM16.1126 17C16.111 17.1547 16.0483 17.3026 15.9383 17.4114C15.8283 17.5202 15.6798 17.5813 15.5251 17.5812H7.80635C7.65161 17.5813 7.50312 17.5202 7.39312 17.4114C7.28312 17.3026 7.22049 17.1547 7.21885 17V5.88125C7.22049 5.72652 7.28312 5.57869 7.39312 5.46986C7.50312 5.36103 7.65161 5.29999 7.80635 5.3H15.5563C15.7111 5.29999 15.8596 5.36103 15.9696 5.46986C16.0796 5.57869 16.1422 5.72652 16.1438 5.88125L16.1126 17Z" fill="#68D0C2"/>
<path d="M14.6812 8.45625H8.68122C8.5994 8.44778 8.51671 8.45658 8.43851 8.48209C8.36031 8.5076 8.28834 8.54924 8.22725 8.60433C8.16617 8.65942 8.11733 8.72672 8.0839 8.80187C8.05048 8.87703 8.0332 8.95837 8.0332 9.04063C8.0332 9.12288 8.05048 9.20422 8.0839 9.27938C8.11733 9.35454 8.16617 9.42184 8.22725 9.47692C8.28834 9.53201 8.36031 9.57365 8.43851 9.59916C8.51671 9.62467 8.5994 9.63347 8.68122 9.625H14.6812C14.763 9.63347 14.8457 9.62467 14.9239 9.59916C15.0021 9.57365 15.0741 9.53201 15.1352 9.47692C15.1963 9.42184 15.2451 9.35454 15.2785 9.27938C15.312 9.20422 15.3292 9.12288 15.3292 9.04063C15.3292 8.95837 15.312 8.87703 15.2785 8.80187C15.2451 8.72672 15.1963 8.65942 15.1352 8.60433C15.0741 8.54924 15.0021 8.5076 14.9239 8.48209C14.8457 8.45658 14.763 8.44778 14.6812 8.45625Z" fill="#68D0C2"/>
<path d="M14.6812 10.8562H8.68122C8.5994 10.8477 8.51671 10.8565 8.43851 10.882C8.36031 10.9075 8.28834 10.9491 8.22725 11.0042C8.16617 11.0593 8.11733 11.1266 8.0839 11.2018C8.05048 11.2769 8.0332 11.3583 8.0332 11.4405C8.0332 11.5228 8.05048 11.6041 8.0839 11.6793C8.11733 11.7544 8.16617 11.8217 8.22725 11.8768C8.28834 11.9319 8.36031 11.9736 8.43851 11.9991C8.51671 12.0246 8.5994 12.0334 8.68122 12.0249H14.6812C14.763 12.0334 14.8457 12.0246 14.9239 11.9991C15.0021 11.9736 15.0741 11.9319 15.1352 11.8768C15.1963 11.8217 15.2451 11.7544 15.2785 11.6793C15.312 11.6041 15.3292 11.5228 15.3292 11.4405C15.3292 11.3583 15.312 11.2769 15.2785 11.2018C15.2451 11.1266 15.1963 11.0593 15.1352 11.0042C15.0741 10.9491 15.0021 10.9075 14.9239 10.882C14.8457 10.8565 14.763 10.8477 14.6812 10.8562Z" fill="#68D0C2"/>
<path d="M14.6813 13.2627H8.68135C8.52719 13.2627 8.37935 13.3239 8.27034 13.4329C8.16134 13.5419 8.1001 13.6898 8.1001 13.8439C8.1001 13.9981 8.16134 14.1459 8.27034 14.255C8.37935 14.364 8.52719 14.4252 8.68135 14.4252H14.6813C14.8355 14.4252 14.9833 14.364 15.0924 14.255C15.2014 14.1459 15.2626 13.9981 15.2626 13.8439C15.2626 13.6898 15.2014 13.5419 15.0924 13.4329C14.9833 13.3239 14.8355 13.2627 14.6813 13.2627Z" fill="#68D0C2"/>
</svg>
