<svg width="18" height="18" viewBox="0 0 18 18" fill="none" xmlns="http://www.w3.org/2000/svg">
<path d="M14.0011 3.71813H12.5498V2.51437C12.5498 2.14589 12.4034 1.7925 12.1429 1.53194C11.8823 1.27138 11.5289 1.125 11.1604 1.125H3.81418C3.44569 1.125 3.0923 1.27138 2.83174 1.53194C2.57118 1.7925 2.4248 2.14589 2.4248 2.51437V12.8925C2.4248 13.261 2.57118 13.6144 2.83174 13.8749C3.0923 14.1355 3.44569 14.2819 3.81418 14.2819H5.45105V15.3C5.45105 15.5068 5.49179 15.7116 5.57094 15.9027C5.6501 16.0938 5.76611 16.2674 5.91236 16.4137C6.05861 16.5599 6.23224 16.676 6.42333 16.7551C6.61442 16.8343 6.81922 16.875 7.02605 16.875H14.0011C14.2079 16.875 14.4127 16.8343 14.6038 16.7551C14.7949 16.676 14.9685 16.5599 15.1147 16.4137C15.261 16.2674 15.377 16.0938 15.4562 15.9027C15.5353 15.7116 15.5761 15.5068 15.5761 15.3V5.29313C15.5761 4.87541 15.4101 4.4748 15.1147 4.17943C14.8194 3.88406 14.4188 3.71813 14.0011 3.71813ZM3.81418 13.23C3.72414 13.23 3.63771 13.1946 3.57352 13.1315C3.50933 13.0684 3.47253 12.9825 3.47105 12.8925V2.51437C3.47253 2.42435 3.50933 2.33851 3.57352 2.27538C3.63771 2.21224 3.72414 2.17686 3.81418 2.17687H11.1604C11.2505 2.17686 11.3369 2.21224 11.4011 2.27538C11.4653 2.33851 11.5021 2.42435 11.5036 2.51437V3.71813H7.00355C6.58584 3.71813 6.18523 3.88406 5.88986 4.17943C5.59449 4.4748 5.42855 4.87541 5.42855 5.29313V13.23H3.81418ZM14.5017 15.3C14.5002 15.4393 14.4438 15.5723 14.3448 15.6703C14.2458 15.7682 14.1122 15.8231 13.9729 15.8231H7.02605C6.88679 15.8231 6.75315 15.7682 6.65415 15.6703C6.55515 15.5723 6.49879 15.4393 6.4973 15.3V5.29313C6.49879 5.15387 6.55515 5.02082 6.65415 4.92287C6.75315 4.82493 6.88679 4.76999 7.02605 4.77H14.0011C14.1403 4.76999 14.274 4.82493 14.373 4.92287C14.472 5.02082 14.5283 5.15387 14.5298 5.29313L14.5017 15.3Z" fill="#796B5F"/>
<path d="M13.2127 7.61072H7.81271C7.73907 7.6031 7.66465 7.61102 7.59427 7.63398C7.52389 7.65693 7.45912 7.69442 7.40414 7.74399C7.34916 7.79357 7.30521 7.85414 7.27512 7.92178C7.24504 7.98942 7.22949 8.06263 7.22949 8.13666C7.22949 8.21069 7.24504 8.2839 7.27512 8.35154C7.30521 8.41918 7.34916 8.47975 7.40414 8.52933C7.45912 8.57891 7.52389 8.61639 7.59427 8.63934C7.66465 8.6623 7.73907 8.67022 7.81271 8.6626H13.2127C13.2863 8.67022 13.3608 8.6623 13.4311 8.63934C13.5015 8.61639 13.5663 8.57891 13.6213 8.52933C13.6763 8.47975 13.7202 8.41918 13.7503 8.35154C13.7804 8.2839 13.7959 8.21069 13.7959 8.13666C13.7959 8.06263 13.7804 7.98942 13.7503 7.92178C13.7202 7.85414 13.6763 7.79357 13.6213 7.74399C13.5663 7.69442 13.5015 7.65693 13.4311 7.63398C13.3608 7.61102 13.2863 7.6031 13.2127 7.61072Z" fill="#796B5F"/>
<path d="M13.2127 9.77063H7.81271C7.73907 9.76301 7.66465 9.77093 7.59427 9.79389C7.52389 9.81685 7.45912 9.85433 7.40414 9.90391C7.34916 9.95348 7.30521 10.0141 7.27512 10.0817C7.24504 10.1493 7.22949 10.2225 7.22949 10.2966C7.22949 10.3706 7.24504 10.4438 7.27512 10.5114C7.30521 10.5791 7.34916 10.6397 7.40414 10.6892C7.45912 10.7388 7.52389 10.7763 7.59427 10.7993C7.66465 10.8222 7.73907 10.8301 7.81271 10.8225H13.2127C13.2863 10.8301 13.3608 10.8222 13.4311 10.7993C13.5015 10.7763 13.5663 10.7388 13.6213 10.6892C13.6763 10.6397 13.7202 10.5791 13.7503 10.5114C13.7804 10.4438 13.7959 10.3706 13.7959 10.2966C13.7959 10.2225 13.7804 10.1493 13.7503 10.0817C13.7202 10.0141 13.6763 9.95348 13.6213 9.90391C13.5663 9.85433 13.5015 9.81685 13.4311 9.79389C13.3608 9.77093 13.2863 9.76301 13.2127 9.77063Z" fill="#796B5F"/>
<path d="M13.2132 11.9363H7.81316C7.67442 11.9363 7.54136 11.9914 7.44326 12.0895C7.34515 12.1876 7.29004 12.3207 7.29004 12.4594C7.29004 12.5981 7.34515 12.7312 7.44326 12.8293C7.54136 12.9274 7.67442 12.9825 7.81316 12.9825H13.2132C13.3519 12.9825 13.485 12.9274 13.5831 12.8293C13.6812 12.7312 13.7363 12.5981 13.7363 12.4594C13.7363 12.3207 13.6812 12.1876 13.5831 12.0895C13.485 11.9914 13.3519 11.9363 13.2132 11.9363Z" fill="#796B5F"/>
</svg>
