<svg width="18" height="18" viewBox="0 0 18 18" fill="none" xmlns="http://www.w3.org/2000/svg">
<g clip-path="url(#clip0_2077_1443)">
<path d="M4.89779 12.0733C5.48423 11.7576 8.03015 10.2067 8.03015 10.2067L17.6404 3.11652C15.9725 1.75104 13.9925 3.2508 13.9925 3.2508L6.85871 8.35776C5.38235 11.0405 3.45383 11.4037 1.92491 12.0852C0.591472 12.6792 0.360352 13.666 0.360352 14.3363C0.360352 15.0361 0.829432 16.56 2.74391 16.56C4.72211 16.56 5.20127 14.8079 5.20127 14.26C5.20127 13.7916 4.98455 13.1069 4.58711 12.7757C4.22999 12.4776 4.59179 12.2382 4.89779 12.0733ZM3.76451 14.278C3.69647 14.8406 3.20219 15.2129 2.64203 15.2129C2.08223 15.2129 1.65563 14.7632 1.72367 14.2002C1.79135 13.6375 2.32811 13.1738 2.88827 13.1738C3.44807 13.1738 3.83255 13.7149 3.76451 14.278Z" stroke="#796B5F" stroke-miterlimit="10" stroke-linecap="round" stroke-linejoin="round"/>
<path d="M8.03015 7.43288C8.03015 7.43288 5.48423 5.88236 4.89779 5.56628C4.59179 5.4014 4.22999 5.16164 4.58747 4.86392C4.98491 4.53272 5.20163 3.848 5.20163 3.37964C5.20127 2.83208 4.72211 1.07996 2.74391 1.07996C0.829432 1.07996 0.360352 2.60384 0.360352 3.30368C0.360352 3.97436 0.591472 4.96112 1.92491 5.55512C3.33863 6.18512 5.09435 6.54332 6.51815 8.7152L8.03015 7.43288ZM8.09279 10.1664L9.05867 10.8576L13.9925 14.3892C13.9925 14.3892 15.9725 15.8889 17.6404 14.5234L10.9073 9.55616L9.97487 8.8682L8.09279 10.1664ZM2.88827 4.46648C2.32811 4.46648 1.79171 4.00316 1.72367 3.44012C1.65599 2.87708 2.08259 2.42708 2.64203 2.42708C3.20183 2.42708 3.69647 2.79896 3.76451 3.362C3.83255 3.92504 3.44807 4.46648 2.88827 4.46648Z" stroke="#796B5F" stroke-miterlimit="10" stroke-linecap="round" stroke-linejoin="round"/>
<path d="M8.27943 9.03566C8.49793 9.03566 8.67507 8.85853 8.67507 8.64002C8.67507 8.42152 8.49793 8.24438 8.27943 8.24438C8.06092 8.24438 7.88379 8.42152 7.88379 8.64002C7.88379 8.85853 8.06092 9.03566 8.27943 9.03566Z" fill="#796B5F"/>
</g>
<defs>
<clipPath id="clip0_2077_1443">
<rect width="18" height="18" fill="white"/>
</clipPath>
</defs>
</svg>
