<svg width="18" height="18" viewBox="0 0 18 18" fill="none" xmlns="http://www.w3.org/2000/svg">
<path d="M7.99626 6.86843C7.90911 6.95558 7.84184 7.05506 7.78311 7.15927L7.74426 7.12043L7.72058 7.28527C7.62584 7.5079 7.59268 7.75232 7.61921 7.99769L7.24121 10.6465L9.891 10.2685C10.1364 10.2951 10.3808 10.2619 10.6034 10.1672L10.7683 10.1444L10.7294 10.1056C10.8327 10.0468 10.9331 9.97958 11.0203 9.89243L15.8073 5.10537L12.7843 2.08232L7.99626 6.86843Z" fill="#796B5F" fill-opacity="0.4"/>
<path d="M17.2262 1.48548L16.402 0.66127C15.7947 0.0540071 14.8512 0.0132702 14.2941 0.569375L13.5391 1.32443L16.5621 4.34748L17.3172 3.59148C17.8742 3.03632 17.8335 2.09274 17.2262 1.48548Z" fill="#796B5F" fill-opacity="0.4"/>
<path d="M14.2105 9.18568V16.1053H1.89474V1.89474H10.3765L11.8194 0.549474C11.9728 0.396947 12.1538 0.340105 12.3452 0.271895C12.3859 0.159158 12.4437 0.101368 12.5119 0H0V18H16.1053V7.51074L14.2105 9.18568Z" fill="#796B5F" fill-opacity="0.4"/>
</svg>
