<svg width="18" height="18" viewBox="0 0 18 18" fill="none" xmlns="http://www.w3.org/2000/svg">
<path d="M7.99581 6.86838C7.90865 6.95554 7.84138 7.05501 7.78265 7.15922L7.74381 7.12038L7.72012 7.28522C7.62538 7.50785 7.59223 7.75228 7.61875 7.99764L7.24075 10.6465L9.89054 10.2685C10.1359 10.295 10.3803 10.2619 10.603 10.1671L10.7678 10.1444L10.729 10.1055C10.8322 10.0468 10.9326 9.97954 11.0198 9.89238L15.8069 5.10533L12.7838 2.08228L7.99581 6.86838Z" fill="#68D0C2"/>
<path d="M17.226 1.48557L16.4018 0.661362C15.7945 0.0540987 14.851 0.0133618 14.2939 0.569467L13.5388 1.32452L16.5619 4.34757L17.317 3.59157C17.874 3.03641 17.8333 2.09284 17.226 1.48557Z" fill="#68D0C2"/>
<path d="M14.2105 9.18568V16.1053H1.89474V1.89474H10.3765L11.8194 0.549474C11.9728 0.396947 12.1538 0.340105 12.3452 0.271895C12.3859 0.159158 12.4437 0.101368 12.5119 0H0V18H16.1053V7.51074L14.2105 9.18568Z" fill="#68D0C2"/>
</svg>
