<svg width="16" height="11" viewBox="0 0 16 11" fill="none" xmlns="http://www.w3.org/2000/svg">
<path d="M0.909091 0C0.414909 0 0 0.419678 0 0.91954V9.74713C0 10.247 0.414909 10.6667 0.909091 10.6667H15.0909C15.5851 10.6667 16 10.247 16 9.74713V0.91954C16 0.419678 15.5851 0 15.0909 0H0.909091ZM1.95455 1.10345H14.0455L8.19318 6.3908C8.11345 6.46285 7.88655 6.46285 7.80682 6.3908L1.95455 1.10345ZM1.09091 1.79885L5.17614 5.49425L1.09091 8.91379V1.79885ZM14.9091 1.79885V8.91379L10.8239 5.49425L14.9091 1.79885ZM6 6.23563L7.07955 7.21264C7.60918 7.69145 8.39082 7.69145 8.92045 7.21264L10 6.23563L13.9773 9.56322H2.02273L6 6.23563Z" fill="#796B5F"/>
</svg>
