<?xml version="1.0" encoding="utf-8"?>
<!-- Generator: Adobe Illustrator 26.4.1, SVG Export Plug-In . SVG Version: 6.00 Build 0)  -->
<svg version="1.1" id="Layer_1" xmlns="http://www.w3.org/2000/svg" xmlns:xlink="http://www.w3.org/1999/xlink" x="0px" y="0px"
	 width="24px" height="24px" viewBox="0 0 24 24" style="enable-background:new 0 0 24 24;" xml:space="preserve">
<style type="text/css">
	.st0{fill-rule:evenodd;clip-rule:evenodd;fill:#4B5563;}
</style>
<path class="st0" d="M22.8,12.7C22.8,12.7,22.8,12.7,22.8,12.7c0,0-3,6.1-10.8,6.1S1.2,12.7,1.2,12.7c0,0,0,0,0,0
	c-0.2-0.4-0.2-1,0-1.4c0,0,0,0,0,0c0,0,3-6.1,10.8-6.1s10.8,6.1,10.8,6.1c0,0,0,0,0,0C23.1,11.7,23.1,12.3,22.8,12.7L22.8,12.7z
	 M12,8.3c-2,0-3.7,1.6-3.7,3.7s1.6,3.7,3.7,3.7s3.7-1.6,3.7-3.7S14,8.3,12,8.3z M12,9.4c1.4,0,2.6,1.2,2.6,2.6s-1.2,2.6-2.6,2.6
	S9.4,13.4,9.4,12S10.6,9.4,12,9.4z"/>
</svg>
