<?xml version="1.0" encoding="utf-8"?>
<!-- Generator: Adobe Illustrator 26.0.2, SVG Export Plug-In . SVG Version: 6.00 Build 0)  -->
<svg version="1.1" id="Layer_1" xmlns="http://www.w3.org/2000/svg" xmlns:xlink="http://www.w3.org/1999/xlink" x="0px" y="0px"
	 viewBox="0 0 24 24" style="enable-background:new 0 0 24 24;" xml:space="preserve">
<style type="text/css">
	.st0{fill:#796B5F;}
</style>
<path class="st0" d="M23.6,6.3L23.6,6.3c-0.4,0-0.5-0.4-0.5-0.5V3.2c0-0.3-0.2-0.5-0.5-0.5h-7.4c-1.9,0-2.6,0.7-2.7,0.9v0.1l0,0
	l-0.1,0.2l0,0c-0.4,0.2-0.5,0.1-0.6,0l-0.3-0.4l-0.1-0.2c-0.2-0.2-0.8-0.7-2-0.7h-8c-0.3,0-0.5,0.2-0.5,0.5v2.6
	c0,0.4-0.2,0.5-0.4,0.6H0.4C0.3,6.3,0,6.4,0,6.9v12.2c0,0.3,0.2,0.5,0.5,0.5h7.2c2.3,0,3.3,0.9,3.6,1.2l0.2,0.2l0,0
	c0,0,0.5,0.5,0.9,0l0,0l0.1-0.1l0,0l0,0l0.1-0.2c0,0,0,0,0.1-0.1c0.4-0.4,1.3-1.1,3.2-1.1h7.4c0.3,0,0.5-0.2,0.5-0.5V6.8
	C24,6.3,23.7,6.3,23.6,6.3z M22,17.2c0,0.2-0.2,0.4-0.5,0.4h-6.1c-2.2,0-3,1-3,1l-0.1,0.1v0.1l0,0c-0.2,0.3-0.5,0-0.5,0l-0.1-0.2
	c-0.1-0.1-0.9-1-2.8-1H2.5c-0.2,0-0.5-0.2-0.5-0.4v-13C2,4,2.2,3.8,2.5,3.8h4.9c3.6,0,4,2.1,4,2.7v9.1c0,0.7,0.3,0.8,0.5,0.8h0.3
	c0.2,0,0.5-0.1,0.5-0.6V6.3l0,0c0-0.8,0.3-2.6,2.5-2.6h6.4c0.3,0,0.5,0.2,0.5,0.4v13.1H22z"/>
</svg>
