<svg width="12" height="12" viewBox="0 0 12 12" fill="none" xmlns="http://www.w3.org/2000/svg">
<g clip-path="url(#clip0_5565_8483)">
<path d="M6 0C2.66667 0 0 2.66667 0 6C0 9.33333 2.66667 12 6 12C9.33333 12 12 9.33333 12 6C12 2.66667 9.33333 0 6 0ZM6.6 10.2H5.4V9H6.6V10.2ZM7.86667 5.53333L7.33333 6.13333C6.93333 6.53333 6.6 6.93333 6.6 7.8H5.4V7.53333C5.4 6.86667 5.66667 6.26667 6.13333 5.86667L6.86667 5.13333C7.06667 4.93333 7.2 4.6 7.2 4.26667C7.2 3.6 6.66667 3.06667 6 3.06667C5.33333 3.06667 4.8 3.53333 4.8 4.2H3.6C3.6 2.86667 4.66667 1.8 6 1.8C7.33333 1.8 8.4 2.86667 8.4 4.2C8.4 4.73333 8.2 5.2 7.86667 5.53333Z" fill="#68D0C2"/>
</g>
<defs>
<clipPath id="clip0_5565_8483">
<rect width="12" height="12" fill="white"/>
</clipPath>
</defs>
</svg>
