<svg width="18" height="18" viewBox="0 0 18 18" fill="none" xmlns="http://www.w3.org/2000/svg">
<path d="M16.7122 8.60063L15.0247 6.91313L9.39971 1.28812C9.34741 1.2354 9.2852 1.19356 9.21666 1.165C9.14811 1.13644 9.07459 1.12174 9.00033 1.12174C8.92607 1.12174 8.85255 1.13644 8.78401 1.165C8.71546 1.19356 8.65325 1.2354 8.60096 1.28812L2.97596 6.91313L1.28846 8.60063C1.23573 8.65292 1.19389 8.71513 1.16533 8.78368C1.13677 8.85222 1.12207 8.92574 1.12207 9C1.12207 9.07426 1.13677 9.14778 1.16533 9.21632C1.19389 9.28487 1.23573 9.34708 1.28846 9.39937C1.34075 9.4521 1.40296 9.49394 1.47151 9.5225C1.54005 9.55106 1.61358 9.56576 1.68783 9.56576C1.76209 9.56576 1.83561 9.55106 1.90416 9.5225C1.9727 9.49394 2.03492 9.4521 2.08721 9.39937L2.81283 8.66813V16.3125C2.81283 16.4617 2.8721 16.6048 2.97758 16.7102C3.08307 16.8157 3.22615 16.875 3.37533 16.875H14.6253C14.7745 16.875 14.9176 16.8157 15.0231 16.7102C15.1286 16.6048 15.1878 16.4617 15.1878 16.3125V8.66813L15.9135 9.39937C15.9657 9.4521 16.028 9.49394 16.0965 9.5225C16.1651 9.55106 16.2386 9.56576 16.3128 9.56576C16.3871 9.56576 16.4606 9.55106 16.5292 9.5225C16.5977 9.49394 16.6599 9.4521 16.7122 9.39937C16.7649 9.34708 16.8068 9.28487 16.8353 9.21632C16.8639 9.14778 16.8786 9.07426 16.8786 9C16.8786 8.92574 16.8639 8.85222 16.8353 8.78368C16.8068 8.71513 16.7649 8.65292 16.7122 8.60063ZM14.0628 15.75H3.93783V7.54313L9.00033 2.48062L14.0628 7.54313V15.75Z" fill="#68D0C2"/>
</svg>
