<?xml version="1.0" encoding="utf-8"?>
<!-- Generator: Adobe Illustrator 25.3.1, SVG Export Plug-In . SVG Version: 6.00 Build 0)  -->
<svg version="1.1" id="Layer_1" xmlns="http://www.w3.org/2000/svg" xmlns:xlink="http://www.w3.org/1999/xlink" x="0px" y="0px"
	 width="24px" height="24px" viewBox="0 0 24 24" style="enable-background:new 0 0 24 24;" xml:space="preserve">
<style type="text/css">
	.st0{fill:#6E6E6E;}
</style>
<g>
	<path class="st0" d="M2,12.8c-0.2,0-0.4,0-0.6,0c-0.3,0-0.4-0.1-0.4-0.3c0-0.5,0-1.1,0-1.6c0-0.2,0.1-0.3,0.3-0.3
		c0.6,0,1.2,0,1.8,0c0.1,0,0.2,0,0.3,0c0-0.2,0-0.4,0-0.6c0-0.2,0.1-0.3,0.3-0.3c0.4,0,0.8,0,1.3,0C5,9.4,5,9.2,5,9
		C4.9,9,4.8,9,4.7,9C3.9,9,3.2,9,2.4,9C2.1,9,2,8.9,2,8.6C2,7,2,5.4,2,3.9c0-0.3,0-0.4,0.4-0.4c2.6,0,5.1,0,7.7,0
		c0.4,0,0.4,0,0.4,0.4c0,1.6,0,3.1,0,4.7c0,0.3-0.1,0.4-0.4,0.4C9.3,9,8.6,9,7.8,9C7.7,9,7.6,9,7.5,9c0,0.2,0,0.4,0,0.6
		c0.4,0,0.8,0,1.2,0c0.3,0,0.4,0.1,0.4,0.4c0,0.2,0,0.3,0,0.5c0,0,0,0,0,0.1c0.3,0,0.5,0,0.8,0c0.5,0,1.1,0,1.6,0
		c0.1,0,0.2,0,0.3-0.2c0.5-1.5,1.1-3,1.7-4.4C13.7,5.3,14.2,5,14.8,5c1.1,0,2.2,0,3.4,0c0.5,0,1.1,0.4,1.2,0.9
		c0.6,1.5,1.1,3,1.7,4.4c0,0.1,0.1,0.2,0.2,0.2c0.5,0,0.9,0,1.4,0c0.3,0,0.4,0.1,0.4,0.4c0,0.5,0,1,0,1.6c0,0.3-0.1,0.4-0.4,0.4
		c-0.2,0-0.4,0-0.6,0c0,0.1,0,0.2,0,0.3c0,3.4,0,6.8,0,10.2c0,0.5,0,0.5-0.5,0.5c-1.8,0-3.6,0-5.3,0c-2.5,0-5,0-7.5,0
		c-2.1,0-4.2,0-6.3,0c-0.3,0-0.3-0.1-0.3-0.3c0-2.2,0-4.4,0-6.6c0-1.3,0-2.5,0-3.8C2,12.9,2,12.9,2,12.8z M2.5,23.2
		c6.3,0,12.7,0,19,0c0-3.5,0-6.9,0-10.4c-6.3,0-12.7,0-19,0C2.5,16.3,2.5,19.7,2.5,23.2z M10,4C7.5,4,5,4,2.5,4c0,1.5,0,3,0,4.5
		c2.5,0,5,0,7.5,0C10,7,10,5.5,10,4z M20.5,10.5c-0.1-0.3-0.2-0.6-0.3-0.9c-0.4-1.2-0.9-2.3-1.3-3.5c-0.1-0.4-0.4-0.6-0.8-0.6
		c-1.1,0-2.2,0-3.3,0c-0.4,0-0.7,0.3-0.8,0.6c-0.4,1-0.8,2.1-1.1,3.1c-0.2,0.4-0.3,0.8-0.5,1.3c0.4,0,0.8,0,1.2,0
		c0,0,0.1-0.1,0.1-0.2c0.1-0.5,0.3-0.9,0.4-1.4c0.1-0.2,0.2-0.3,0.3-0.3c0.1,0,0.2,0.2,0.1,0.4c-0.1,0.5-0.3,0.9-0.4,1.4
		c1.5,0,3,0,4.5,0c0-0.1,0-0.1,0-0.1c-0.1-0.5-0.3-0.9-0.4-1.4c0-0.1,0-0.3,0.2-0.3c0.1,0,0.3,0,0.3,0.2c0,0,0,0.1,0,0.1
		c0.1,0.5,0.3,0.9,0.4,1.4c0,0.1,0.1,0.2,0.1,0.2C19.7,10.5,20.1,10.5,20.5,10.5z M22.5,11c-7,0-14,0-21,0c0,0.4,0,0.8,0,1.2
		c7,0,14,0,21,0C22.5,11.8,22.5,11.4,22.5,11z M3.9,10.5c1.6,0,3.1,0,4.7,0c0-0.1,0-0.2,0-0.4c-1.6,0-3.2,0-4.7,0
		C3.9,10.2,3.9,10.4,3.9,10.5z M7,9C6.5,9,6,9,5.5,9c0,0.2,0,0.4,0,0.6c0.5,0,1,0,1.5,0C7,9.4,7,9.2,7,9z"/>
	<path class="st0" d="M18.5,2.4c0,1.2-0.9,2.1-2.1,2.1c-1.2,0-2.1-0.9-2.1-2.1c0-1.2,0.9-2.1,2.1-2.1C17.6,0.3,18.5,1.3,18.5,2.4z
		 M18,2.4c0-0.9-0.7-1.6-1.6-1.6c-0.9,0-1.6,0.7-1.6,1.6c0,0.9,0.7,1.6,1.6,1.6C17.3,4,18,3.3,18,2.4z"/>
	<path class="st0" d="M3.7,22c0.1,0,0.2,0,0.3,0c3.2,0,6.4,0,9.6,0c0.1,0,0.1,0,0.2,0c0.2,0,0.3,0.1,0.3,0.3c0,0.2-0.1,0.2-0.3,0.2
		c-0.5,0-1,0-1.5,0c-2.9,0-5.8,0-8.7,0c-0.3,0-0.4-0.1-0.4-0.3c0-1.7,0-3.5,0-5.2c0-0.2,0-0.3,0.2-0.3c0.1,0,0.2,0.1,0.3,0.1
		c0,0,0,0.2,0,0.2c0,1.6,0,3.2,0,4.8C3.7,21.8,3.7,21.9,3.7,22z"/>
	<path class="st0" d="M4.1,7.3c0.3,0,0.6,0,0.9,0c0.2,0,0.3,0.1,0.3,0.3c0,0.2-0.1,0.2-0.3,0.2c-0.6,0-1.3,0-1.9,0
		C3,7.9,2.9,7.8,2.9,7.6c0-0.2,0.1-0.2,0.3-0.2C3.5,7.3,3.8,7.3,4.1,7.3C4.1,7.3,4.1,7.3,4.1,7.3z"/>
	<path class="st0" d="M4.1,7C3.8,7,3.5,7,3.2,7C3,7,2.8,6.9,2.9,6.7c0-0.2,0.1-0.2,0.3-0.2c0.6,0,1.2,0,1.9,0c0.2,0,0.3,0.1,0.3,0.3
		C5.3,6.9,5.2,7,5,7C4.7,7,4.4,7,4.1,7z"/>
</g>
</svg>
