<svg width="24" height="24" viewBox="0 0 24 24" fill="none" xmlns="http://www.w3.org/2000/svg">
<path d="M22.313 14.065C22.496 14.065 22.67 13.992 22.799 13.863C22.928 13.734 23 13.56 23 13.378V9.253C23 9.07 22.928 8.896 22.799 8.767C22.67 8.638 22.495 8.566 22.313 8.566H21.797C21.666 8.234 21.669 7.865 21.805 7.535C21.941 7.206 22.2 6.941 22.527 6.799C22.695 6.727 22.827 6.59 22.894 6.42C22.961 6.249 22.957 6.06 22.884 5.892L21.247 2.104C21.172 1.94 21.036 1.809 20.869 1.74C20.7 1.67 20.509 1.67 20.34 1.74L4.603 8.567H1.68799C1.50599 8.567 1.332 8.639 1.203 8.768C1.072 8.896 1 9.07 1 9.253V13.378C1 13.56 1.072 13.734 1.202 13.863C1.331 13.992 1.50601 14.065 1.68701 14.065C2.17801 14.065 2.63199 14.327 2.87799 14.753C3.12299 15.178 3.12299 15.702 2.87799 16.128C2.63199 16.553 2.17801 16.816 1.68701 16.816C1.50501 16.816 1.331 16.888 1.202 17.017C1.072 17.146 1 17.321 1 17.503V21.628C1 21.81 1.072 21.984 1.202 22.113C1.331 22.242 1.50601 22.314 1.68701 22.314H22.312C22.495 22.314 22.669 22.242 22.798 22.113C22.927 21.984 23 21.81 23 21.628V17.503C23 17.32 22.928 17.146 22.799 17.017C22.67 16.888 22.495 16.816 22.313 16.816C21.822 16.816 21.368 16.553 21.123 16.128C20.877 15.702 20.877 15.178 21.123 14.753C21.367 14.327 21.821 14.065 22.313 14.065ZM21.625 18.101V20.94H2.37601V18.101C3.16601 17.894 3.82301 17.347 4.17001 16.608C4.51701 15.869 4.51701 15.013 4.17001 14.273C3.82301 13.534 3.16601 12.987 2.37601 12.78V9.94H21.625V12.779C20.835 12.986 20.178 13.533 19.831 14.272C19.484 15.012 19.484 15.868 19.831 16.607C20.178 17.346 20.835 17.894 21.625 18.101Z" fill="white"/>
<path d="M16.125 10.628H17.5V12.691H16.125V10.628Z" fill="white"/>
<path d="M16.125 14.065H17.5V16.815H16.125V14.065Z" fill="white"/>
<path d="M16.125 18.189H17.5V20.252H16.125V18.189Z" fill="white"/>
<path d="M8.5625 13.377C8.5625 14.137 7.9475 14.752 7.1875 14.752C6.4285 14.752 5.8125 14.137 5.8125 13.377C5.8125 12.618 6.4285 12.003 7.1875 12.003C7.9465 12.003 8.5625 12.618 8.5625 13.377Z" fill="white"/>
<path d="M12.6875 17.503C12.6875 18.262 12.0725 18.878 11.3125 18.878C10.5535 18.878 9.9375 18.262 9.9375 17.503C9.9375 16.743 10.5535 16.128 11.3125 16.128C12.0715 16.128 12.6875 16.743 12.6875 17.503Z" fill="white"/>
<path d="M11.5126 12.202L6.0126 17.702C5.8816 17.831 5.80859 18.007 5.80859 18.19C5.80859 18.373 5.8816 18.548 6.0126 18.677C6.1416 18.808 6.3176 18.881 6.4996 18.881C6.6836 18.881 6.85861 18.808 6.98761 18.677L12.4876 13.177C12.6626 13.003 12.7306 12.748 12.6676 12.51C12.6036 12.272 12.4166 12.086 12.1796 12.023C11.9406 11.959 11.6866 12.027 11.5126 12.202Z" fill="white"/>
</svg>
