<svg width="24" height="24" viewBox="0 0 24 24" fill="none" xmlns="http://www.w3.org/2000/svg">
<path d="M16.717 12.371H15.627L14.932 10.192C14.584 9.079 13.541 8.315 12.359 8.315H6.19296C5.01096 8.315 3.99096 9.057 3.61996 10.192L2.92398 12.371H1.85797C1.39497 12.371 1.00098 12.742 1.00098 13.228V13.715C1.00098 14.179 1.37197 14.573 1.85797 14.573H2.15997C1.99697 15.361 1.90497 16.149 1.90497 16.96V21.04C1.90497 21.503 2.27596 21.897 2.76196 21.897H4.17596C4.63896 21.897 5.03296 21.526 5.03296 21.04V19.719H13.587V21.04C13.587 21.503 13.958 21.897 14.444 21.897H15.858C16.322 21.897 16.716 21.526 16.716 21.04V16.937C16.716 16.125 16.623 15.337 16.461 14.549H16.762C17.226 14.549 17.619 14.178 17.619 13.692V13.205C17.574 12.765 17.18 12.371 16.717 12.371ZM4.43097 13.251L5.24298 10.725C5.38198 10.308 5.75297 10.03 6.19397 10.03H12.36C12.8 10.03 13.171 10.308 13.311 10.725L14.123 13.251C14.169 13.367 14.076 13.483 13.96 13.483H4.59497C4.47797 13.483 4.38497 13.368 4.43097 13.251ZM6.21597 17.401H4.49997C4.22197 17.401 3.96698 17.169 3.96698 16.868V16.057C3.96698 15.732 4.24498 15.5 4.56998 15.547L6.16998 15.802C6.37798 15.825 6.54098 15.988 6.58698 16.219L6.70297 16.775C6.79497 17.1 6.56297 17.401 6.21597 17.401ZM14.584 16.891C14.584 17.169 14.353 17.424 14.051 17.424H12.336C12.011 17.424 11.756 17.122 11.826 16.798L11.942 16.241C11.988 16.033 12.15 15.87 12.359 15.824L13.958 15.569C14.282 15.523 14.561 15.754 14.561 16.079V16.891H14.584V16.891Z" fill="white"/>
<path d="M19.7073 4.07199H19.1973V5.46299H19.7073C20.1013 5.46299 20.4023 5.16099 20.4023 4.76699C20.4023 4.37299 20.1013 4.07199 19.7073 4.07199Z" fill="white"/>
<path d="M22.4656 2.10199H17.1566C16.8546 2.10199 16.5996 2.35699 16.5996 2.65799V7.96699C16.5996 8.26799 16.8546 8.52299 17.1566 8.52299H19.1496V21.62C19.1496 21.782 19.2656 21.898 19.4276 21.898H20.2156C20.3776 21.898 20.4936 21.782 20.4936 21.62V8.52299H22.4406C22.7416 8.52299 22.9976 8.26799 22.9976 7.96699V2.65799C23.0206 2.35699 22.7666 2.10199 22.4656 2.10199ZM19.7066 6.20499H19.1966V7.17799C19.1966 7.24799 19.1496 7.29399 19.0806 7.29399H18.5476C18.4786 7.29399 18.4316 7.24799 18.4316 7.17799V3.51599C18.4316 3.39999 18.5246 3.30699 18.6406 3.30699H19.6616C20.4496 3.30699 21.1216 3.93299 21.1446 4.72099C21.1896 5.55599 20.5186 6.20499 19.7066 6.20499Z" fill="white"/>
</svg>
