<svg width="24" height="24" viewBox="0 0 24 24" fill="none" xmlns="http://www.w3.org/2000/svg">
<g clip-path="url(#clip0_1034_2283)">
<path d="M16.8 24C15.5333 24 14.3667 23.7667 14.2 23.7333C13.9667 23.7 13.5667 23.6 12.6667 23.4C11.9333 23.2 10.9 22.9333 10.3333 22.6333L10.0333 22.5C9.13333 22.0667 8 21.5 6.43333 21.6667V22.5667C6.43333 22.8333 6.2 23.0667 5.93333 23.0667H0.5C0.233333 23.0667 0 22.8333 0 22.5667V9.36668C0 9.10001 0.233333 8.86668 0.5 8.86668H5.93333C6.2 8.86668 6.43333 9.10001 6.43333 9.36668V10.4333C7.1 10.4 8.36667 10.1667 9.46667 9.20001C10.8333 7.96668 11.5333 5.93335 11.5667 3.16668C11.5667 2.06668 11.8667 1.23335 12.4667 0.66668C13.1333 0.0333467 13.9667 0.0333467 14.1667 0.0333467C14.3333 1.33552e-05 15.3333 -0.03332 16.0667 0.633347C16.5667 1.06668 16.8 1.66668 16.8333 2.46668V2.83335C16.9 4.66668 17.0333 7.50001 16.2667 9.23335L20.3667 8.86668C20.5333 8.83335 22.1 8.66668 23.0333 9.40001C23.4333 9.70001 23.6667 10.1333 23.7 10.6C23.8 11.5333 23.2 12.2 22.4667 12.6667C22.7667 12.8 23.0667 12.9667 23.3 13.2C23.6 13.5 23.7333 13.8667 23.7333 14.3C23.7333 15.6667 22.8333 16.3 22.0333 16.4333C22 16.4333 22 16.4333 21.9667 16.4333C22.4333 16.9 22.7333 17.5667 22.6 18.4667C22.4333 19.4 21.8333 19.9 21.1333 20.1667C21.0667 20.6 20.7 23.1 18.8667 23.7333C18.2333 23.9333 17.5 24 16.8 24ZM14.3 22.7667C14.3333 22.7667 14.3333 22.7667 14.3667 22.7667C14.4 22.7667 17 23.3 18.5667 22.7667C19.5333 22.4333 19.9333 21.2667 20.1 20.5333C19.9 20.5 19.7 20.4333 19.4 20.3333C19.1667 20.2667 19.0333 20 19.0667 19.7667C19.1333 19.5333 19.3333 19.3667 19.6 19.3667C19.6667 19.3667 21.4667 19.5 21.6667 18.2667C21.8667 17.0333 20.4667 16.5667 20.4333 16.5667C20.2 16.5 20.0667 16.2667 20.1 16.0333C20.1333 15.8 20.3 15.6 20.5333 15.6C20.8333 15.5667 21.7 15.4667 21.9667 15.4333C22.3667 15.3667 22.8333 15.1 22.8333 14.2667C22.8333 13.5 21.2 13.3333 20.7667 13.3C20.5 13.3 20.3 13.1 20.2667 12.8667C20.2333 12.6 20.4 12.4 20.6667 12.3333C20.7 12.3333 22.9333 11.8 22.8 10.7C22.7667 10.4667 22.6667 10.3 22.5 10.1667C21.9667 9.76668 20.9 9.76668 20.5333 9.83335L15.4 10.3333C15.2 10.3667 15 10.2333 14.9 10.0667C14.8 9.86668 14.8333 9.66668 15 9.50001C16.1 8.36668 15.9333 4.80001 15.8667 2.90001V2.50001C15.8667 2.00001 15.7 1.63335 15.4333 1.36668C14.9333 0.933347 14.2 1.00001 14.1667 1.00001C14.1333 1.00001 14.1 1.00001 14.1 1.00001C14.0667 1.00001 13.5333 0.96668 13.1 1.40001C12.7333 1.76668 12.5333 2.36668 12.5333 3.16668C12.5 6.26668 11.6667 8.53335 10.1 9.93335C8.76667 11.1333 7.23333 11.3667 6.43333 11.4V20.6667C8.23333 20.5333 9.53333 21.1333 10.4667 21.6333L10.7333 21.7667C11.6333 22.2 14.0333 22.7 14.3 22.7667ZM1 22.0667H5.43333V21.2667C5.43333 21.2333 5.43333 21.2333 5.43333 21.2V10.9333V9.86668H1V22.0667ZM3.2 21.3667C2.93333 21.3667 2.7 21.1333 2.7 20.8667V18.8667C2.7 18.6 2.93333 18.3667 3.2 18.3667C3.46667 18.3667 3.7 18.6 3.7 18.8667V20.8667C3.7 21.1667 3.5 21.3667 3.2 21.3667Z" fill="#796B5F"/>
</g>
<defs>
<clipPath id="clip0_1034_2283">
<rect width="23.8" height="24" fill="white"/>
</clipPath>
</defs>
</svg>
