<?xml version="1.0" encoding="utf-8"?>
<!-- Generator: Adobe Illustrator 26.0.2, SVG Export Plug-In . SVG Version: 6.00 Build 0)  -->
<svg version="1.1" id="Layer_1" xmlns="http://www.w3.org/2000/svg" xmlns:xlink="http://www.w3.org/1999/xlink" x="0px" y="0px"
	 viewBox="0 0 24 24" style="enable-background:new 0 0 24 24;" xml:space="preserve">
<style type="text/css">
	.st0{fill:#FFFFFF;}
</style>
<g>
	<path class="st0" d="M16.8,24c-1.3,0-2.4-0.2-2.6-0.3c-0.2,0-0.6-0.1-1.5-0.3c-0.7-0.2-1.8-0.5-2.3-0.8L10,22.5
		c-0.9-0.4-2-1-3.6-0.8v0.9c0,0.3-0.2,0.5-0.5,0.5H0.5c-0.3,0-0.5-0.2-0.5-0.5V9.4c0-0.3,0.2-0.5,0.5-0.5h5.4c0.3,0,0.5,0.2,0.5,0.5
		v1.1c0.7,0,1.9-0.3,3-1.2c1.4-1.2,2.1-3.3,2.1-6c0-1.1,0.3-1.9,0.9-2.5C13.1,0,14,0,14.2,0s1.2-0.1,1.9,0.6c0.5,0.4,0.7,1,0.8,1.8
		v0.4c0.1,1.8,0.2,4.7-0.6,6.4l4.1-0.4c0.2,0,1.7-0.2,2.7,0.5c0.4,0.3,0.6,0.7,0.7,1.2c0.1,0.9-0.5,1.6-1.2,2.1
		c0.3,0.1,0.6,0.3,0.8,0.5c0.3,0.3,0.4,0.7,0.4,1.1c0,1.4-0.9,2-1.7,2.1c0,0,0,0-0.1,0c0.5,0.5,0.8,1.1,0.6,2
		c-0.2,0.9-0.8,1.4-1.5,1.7c-0.1,0.4-0.4,2.9-2.3,3.6C18.2,23.9,17.5,24,16.8,24z M14.3,22.8L14.3,22.8c0.1,0,2.7,0.5,4.3,0
		c1-0.3,1.4-1.5,1.5-2.2c-0.2,0-0.4-0.1-0.7-0.2c-0.2-0.1-0.4-0.3-0.3-0.6c0.1-0.2,0.3-0.4,0.5-0.4c0.1,0,1.9,0.1,2.1-1.1
		s-1.2-1.7-1.2-1.7c-0.2-0.1-0.4-0.3-0.3-0.5c0-0.2,0.2-0.4,0.4-0.4c0.3,0,1.2-0.1,1.4-0.2c0.4-0.1,0.9-0.3,0.9-1.2
		c0-0.8-1.6-0.9-2.1-1c-0.3,0-0.5-0.2-0.5-0.4c0-0.3,0.1-0.5,0.4-0.5c0,0,2.3-0.5,2.1-1.6c0-0.2-0.1-0.4-0.3-0.5
		c-0.5-0.4-1.6-0.4-2-0.3l-5.1,0.5c-0.2,0-0.4-0.1-0.5-0.3S14.8,9.8,15,9.6c1.1-1.1,0.9-4.7,0.9-6.6V2.5c0-0.5-0.2-0.9-0.4-1.1
		C14.9,0.9,14.2,1,14.2,1h-0.1c0,0-0.6,0-1,0.4s-0.6,1-0.6,1.8c0,3.1-0.9,5.4-2.4,6.8c-1.3,1.2-2.9,1.4-3.7,1.5v9.3
		c1.8-0.1,3.1,0.5,4,1l0.3,0.1C11.6,22.2,14,22.7,14.3,22.8z M1,22.1h4.4v-0.8c0,0,0,0,0-0.1V10.9v-1H1V22.1z M3.2,21.4
		c-0.3,0-0.5-0.2-0.5-0.5v-2c0-0.3,0.2-0.5,0.5-0.5s0.5,0.2,0.5,0.5v2C3.7,21.2,3.5,21.4,3.2,21.4z"/>
</g>
</svg>
