<?xml version="1.0" encoding="utf-8"?>
<!-- Generator: Adobe Illustrator 26.4.1, SVG Export Plug-In . SVG Version: 6.00 Build 0)  -->
<svg version="1.1" id="Layer_1" xmlns="http://www.w3.org/2000/svg" xmlns:xlink="http://www.w3.org/1999/xlink" x="0px" y="0px"
	 width="16px" height="16px" viewBox="0 0 16 16" style="enable-background:new 0 0 16 16;" xml:space="preserve">
<style type="text/css">
	.st0{fill:#68D0C2;}
</style>
<g>
	<path class="st0" d="M8,15.5c4.13,0,7.5-3.37,7.5-7.5c0-4.13-3.37-7.5-7.5-7.5S0.5,3.87,0.5,8S3.87,15.5,8,15.5z M8,2.1
		c3.25,0,5.9,2.65,5.9,5.9s-2.65,5.9-5.9,5.9S2.1,11.25,2.1,8S4.75,2.1,8,2.1L8,2.1z"/>
	<path class="st0" d="M7.18,7.02h1.6v4.75h-1.6V7.02z"/>
	<path class="st0" d="M7.18,4.08h1.6v1.52h-1.6V4.08z"/>
</g>
</svg>
