<svg width="18" height="18" viewBox="0 0 18 18" fill="none" xmlns="http://www.w3.org/2000/svg">
<path d="M13.5 17.4375H4.5C4.05245 17.4375 3.62322 17.2597 3.30676 16.9432C2.99029 16.6268 2.8125 16.1976 2.8125 15.75V5.0625C2.8125 4.91332 2.87176 4.77024 2.97725 4.66475C3.08274 4.55926 3.22582 4.5 3.375 4.5C3.52418 4.5 3.66726 4.55926 3.77275 4.66475C3.87824 4.77024 3.9375 4.91332 3.9375 5.0625V15.75C3.9375 15.8992 3.99676 16.0423 4.10225 16.1477C4.20774 16.2532 4.35082 16.3125 4.5 16.3125H13.5C13.6492 16.3125 13.7923 16.2532 13.8977 16.1477C14.0032 16.0423 14.0625 15.8992 14.0625 15.75V5.0625C14.0625 4.91332 14.1218 4.77024 14.2273 4.66475C14.3327 4.55926 14.4758 4.5 14.625 4.5C14.7742 4.5 14.9173 4.55926 15.0227 4.66475C15.1282 4.77024 15.1875 4.91332 15.1875 5.0625V15.75C15.1875 16.1976 15.0097 16.6268 14.6932 16.9432C14.3768 17.2597 13.9476 17.4375 13.5 17.4375Z" fill="#796B5F"/>
<path d="M15.75 3.9375H2.25C2.10082 3.9375 1.95774 3.87824 1.85225 3.77275C1.74676 3.66726 1.6875 3.52418 1.6875 3.375C1.6875 3.22582 1.74676 3.08274 1.85225 2.97725C1.95774 2.87176 2.10082 2.8125 2.25 2.8125H15.75C15.8992 2.8125 16.0423 2.87176 16.1477 2.97725C16.2532 3.08274 16.3125 3.22582 16.3125 3.375C16.3125 3.52418 16.2532 3.66726 16.1477 3.77275C16.0423 3.87824 15.8992 3.9375 15.75 3.9375Z" fill="#796B5F"/>
<path d="M11.25 3.9375C11.1008 3.9375 10.9577 3.87824 10.8523 3.77275C10.7468 3.66726 10.6875 3.52418 10.6875 3.375V1.6875H7.3125V3.375C7.3125 3.52418 7.25324 3.66726 7.14775 3.77275C7.04226 3.87824 6.89918 3.9375 6.75 3.9375C6.60082 3.9375 6.45774 3.87824 6.35225 3.77275C6.24676 3.66726 6.1875 3.52418 6.1875 3.375V1.125C6.1875 0.975816 6.24676 0.832742 6.35225 0.727252C6.45774 0.621763 6.60082 0.5625 6.75 0.5625H11.25C11.3992 0.5625 11.5423 0.621763 11.6477 0.727252C11.7532 0.832742 11.8125 0.975816 11.8125 1.125V3.375C11.8125 3.52418 11.7532 3.66726 11.6477 3.77275C11.5423 3.87824 11.3992 3.9375 11.25 3.9375Z" fill="#796B5F"/>
<path d="M9 14.625C8.85082 14.625 8.70774 14.5657 8.60225 14.4602C8.49676 14.3548 8.4375 14.2117 8.4375 14.0625V6.1875C8.4375 6.03832 8.49676 5.89524 8.60225 5.78975C8.70774 5.68426 8.85082 5.625 9 5.625C9.14918 5.625 9.29226 5.68426 9.39775 5.78975C9.50324 5.89524 9.5625 6.03832 9.5625 6.1875V14.0625C9.5625 14.2117 9.50324 14.3548 9.39775 14.4602C9.29226 14.5657 9.14918 14.625 9 14.625Z" fill="#796B5F"/>
<path d="M11.8125 13.5C11.6633 13.5 11.5202 13.4407 11.4148 13.3352C11.3093 13.2298 11.25 13.0867 11.25 12.9375V7.3125C11.25 7.16332 11.3093 7.02024 11.4148 6.91475C11.5202 6.80926 11.6633 6.75 11.8125 6.75C11.9617 6.75 12.1048 6.80926 12.2102 6.91475C12.3157 7.02024 12.375 7.16332 12.375 7.3125V12.9375C12.375 13.0867 12.3157 13.2298 12.2102 13.3352C12.1048 13.4407 11.9617 13.5 11.8125 13.5Z" fill="#796B5F"/>
<path d="M6.1875 13.5C6.03832 13.5 5.89524 13.4407 5.78975 13.3352C5.68426 13.2298 5.625 13.0867 5.625 12.9375V7.3125C5.625 7.16332 5.68426 7.02024 5.78975 6.91475C5.89524 6.80926 6.03832 6.75 6.1875 6.75C6.33668 6.75 6.47976 6.80926 6.58525 6.91475C6.69074 7.02024 6.75 7.16332 6.75 7.3125V12.9375C6.75 13.0867 6.69074 13.2298 6.58525 13.3352C6.47976 13.4407 6.33668 13.5 6.1875 13.5Z" fill="#796B5F"/>
</svg>
