<svg width="212" height="35" viewBox="0 0 212 35" fill="none" xmlns="http://www.w3.org/2000/svg">
<g clip-path="url(#clip0_1788_8397)">
<path d="M120.302 9.73275C118.942 9.70947 117.601 10.0532 116.419 10.7278C115.238 11.4025 114.259 12.3833 113.585 13.5675V10.3232H109.172V34.4105H113.585V19.4144C113.585 15.1375 116.085 12.8767 119.273 12.8767C121.873 12.8767 124.666 14.4006 124.666 19.4144V34.4105H129.079V19.4144C129.079 11.9955 124.617 9.73074 120.302 9.73074V9.73275ZM136.318 34.4105H146.369V30.3301H140.731V0H136.318V34.4105ZM152.007 4.86637H157.351V0H152.007V4.86637ZM152.497 34.4095H156.91V10.3232H152.498L152.497 34.4095ZM175.592 9.73275C174.232 9.70936 172.891 10.053 171.709 10.7277C170.528 11.4023 169.549 12.3832 168.875 13.5675V10.3232H164.461V34.4105H168.875V19.4144C168.875 15.1375 171.375 12.8767 174.562 12.8767C177.162 12.8767 179.956 14.4006 179.956 19.4144V34.4105H184.369V19.4144C184.369 11.9955 179.907 9.73074 175.592 9.73074V9.73275ZM212.001 22.3629C212.001 15.333 208.323 9.73074 200.968 9.73074C193.568 9.73074 189.789 15.335 189.789 22.3629C189.789 29.3907 193.466 34.995 200.919 34.995C206.656 34.995 210.578 31.7016 211.902 27.0307H207.244C206.784 28.314 205.926 29.4163 204.797 30.1768C203.668 30.9373 202.326 31.3163 200.967 31.2585C196.799 31.2585 194.446 27.9651 194.298 22.9022H211.998L212.001 22.3629ZM194.495 19.7151C195.181 15.8323 197.339 13.4231 200.967 13.4231C204.595 13.4231 206.655 15.8293 207.244 19.7151H194.495Z" fill="#202020"/>
<path d="M91.0022 13.9755C88.7698 13.9779 86.6295 14.868 85.051 16.4506C83.4724 18.0332 82.5846 20.1789 82.5822 22.417C82.5846 24.6551 83.4724 26.8008 85.051 28.3834C86.6295 29.9659 88.7698 30.8561 91.0022 30.8584C93.2346 30.8561 95.3748 29.9659 96.9534 28.3834C98.5319 26.8008 99.4198 24.6551 99.4222 22.417C99.4198 20.1789 98.5319 18.0332 96.9534 16.4506C95.3748 14.868 93.2346 13.9779 91.0022 13.9755ZM91.0022 34.999C87.6747 34.9953 84.4847 33.6685 82.1317 31.3097C79.7788 28.951 78.4551 25.7529 78.4512 22.417C78.4549 19.0809 79.7784 15.8825 82.1314 13.5236C84.4843 11.1646 87.6746 9.8377 91.0022 9.83398C94.3298 9.8377 97.52 11.1646 99.873 13.5236C102.226 15.8825 103.549 19.0809 103.553 22.417C103.549 25.7527 102.226 28.9507 99.873 31.3094C97.5203 33.6681 94.3304 34.995 91.0032 34.999" fill="#68D0C2"/>
<path d="M22.6519 9.73285C21.3106 9.66305 19.9797 10.0012 18.8335 10.7031C17.6873 11.4049 16.7794 12.4377 16.2289 13.6659C15.7854 12.4542 14.9648 11.4176 13.8885 10.7094C12.8122 10.0012 11.5372 9.65878 10.2519 9.73285C9.08004 9.67356 7.91468 9.9407 6.88496 10.5047C5.85523 11.0686 5.00134 11.9074 4.41791 12.928V10.3213H0.00390625V34.4106H4.41791V18.3849C4.41791 14.9441 5.64291 12.8789 8.68291 12.8789C11.2329 12.8789 12.6539 14.7466 12.6539 18.3347V34.4106H17.0679V18.3849C17.0679 15.1396 18.2449 12.8789 21.2349 12.8789C23.6349 12.8789 25.3049 14.7466 25.3049 18.3347V34.4106H29.7179V18.7267C29.7179 12.6322 26.8249 9.73085 22.6569 9.73085L22.6519 9.73285ZM38.3569 34.4086H48.9969V30.5759H42.7699V14.1571H48.9969V10.3234H42.7699V3.93311H38.3519V8.90174C38.3376 9.29249 38.1697 9.66171 37.885 9.92894C37.6003 10.1962 37.2218 10.3397 36.8319 10.3284H33.7919V14.1621H38.3519L38.3569 34.4086ZM64.0809 34.9981C70.3079 34.9981 73.5939 31.9503 73.5939 28.1156C73.5939 24.5756 71.4359 22.4131 67.7099 21.2331C66.1889 20.7449 64.5219 20.2536 63.1519 19.8105C60.7469 19.1227 59.0789 18.2866 59.0789 16.3697C59.0789 14.2564 60.7469 12.928 63.3449 12.928C65.9429 12.928 67.8069 14.9932 68.1519 17.6971H72.5159C72.3332 15.4475 71.2837 13.3577 69.5899 11.8709C67.8961 10.3841 65.6912 9.61722 63.4429 9.73285C57.3639 9.73285 54.8139 13.322 54.8139 16.6635C54.8139 19.2701 56.0399 21.7274 60.5509 23.1028L65.1109 24.5285C67.3169 25.2162 68.9839 26.1997 68.9839 28.1166C68.9839 30.4766 66.5839 31.41 64.1299 31.41C62.0699 31.41 59.0789 30.3282 58.6379 27.0348H53.9799C54.4699 31.1643 57.5589 34.9991 64.0799 34.9991" fill="#202020"/>
</g>
<defs>
<clipPath id="clip0_1788_8397">
<rect width="212" height="35" fill="white"/>
</clipPath>
</defs>
</svg>
