<svg width="24" height="24" viewBox="0 0 24 24" fill="none" xmlns="http://www.w3.org/2000/svg">
<path d="M23.4667 18.7333H0.533333C0.233333 18.7333 0 18.5 0 18.2V15.6667C0 15.3667 0.233333 15.1333 0.533333 15.1333C1.33333 15.1 2.06667 14.7667 2.63333 14.1667C3.2 13.5667 3.46667 12.8 3.43333 12C3.36667 10.4333 2.1 9.16667 0.533333 9.1C0.233333 9.1 0 8.86667 0 8.56667V5.76667C0 5.46667 0.233333 5.23334 0.533333 5.23334H23.4667C23.7667 5.23334 24 5.46667 24 5.76667V8.33334C24 8.46667 23.9333 8.6 23.8333 8.7C23.7333 8.8 23.6 8.86667 23.4667 8.86667C22.6667 8.86667 21.9 9.16667 21.3333 9.73334C20.7667 10.3 20.4667 11.0667 20.4667 11.8667C20.4667 12.6667 20.7667 13.4333 21.3333 14C21.9 14.5667 22.6667 14.8667 23.4667 14.8667C23.7667 14.8667 24 15.1 24 15.4V18.2C24 18.5 23.7667 18.7333 23.4667 18.7333ZM1.06667 17.6667H22.9333V15.9C22.0333 15.8 21.2333 15.3667 20.5667 14.7333C19.8 13.9667 19.3667 12.9333 19.3667 11.8333C19.3667 10.7333 19.8 9.73334 20.5667 8.93334C21.2 8.3 22.0333 7.9 22.9 7.76667V6.33334H1.06667V8.1C2.96667 8.4 4.4 10.0333 4.5 11.9667C4.53333 13.0667 4.16667 14.1 3.4 14.9C2.76667 15.5667 1.96667 16 1.06667 16.1333V17.6667Z" fill="#796B5F"/>
<path d="M8.70026 15.6333C8.56693 15.6333 8.43359 15.5667 8.33359 15.4667C8.13359 15.2667 8.13359 14.9 8.33359 14.7L14.6669 8.46667C14.8669 8.26667 15.2336 8.26667 15.4336 8.46667C15.6336 8.66667 15.6336 9.03333 15.4336 9.23333L9.10026 15.4667C9.00026 15.6 8.86693 15.6333 8.70026 15.6333Z" fill="#796B5F"/>
<path d="M13.8329 16.4C12.7662 16.4 11.8662 15.5333 11.8662 14.4333C11.8662 13.3333 12.7329 12.4667 13.8329 12.4667C14.8995 12.4667 15.7995 13.3333 15.7995 14.4333C15.7995 15.5333 14.8995 16.4 13.8329 16.4ZM13.8329 13.5667C13.3329 13.5667 12.9662 13.9667 12.9662 14.4333C12.9662 14.9 13.3329 15.3333 13.8329 15.3333C14.3329 15.3333 14.6995 14.9333 14.6995 14.4667C14.6995 14 14.2995 13.5667 13.8329 13.5667Z" fill="#796B5F"/>
<path d="M10.1669 11.5C9.10019 11.5 8.2002 10.6333 8.2002 9.53333C8.2002 8.43333 9.06686 7.56667 10.1669 7.56667C11.2335 7.56667 12.1335 8.43333 12.1335 9.53333C12.1335 10.6333 11.2669 11.5 10.1669 11.5ZM10.1669 8.66667C9.66686 8.66667 9.30019 9.06667 9.30019 9.53333C9.30019 10 9.70019 10.4 10.1669 10.4C10.6669 10.4 11.0335 10 11.0335 9.53333C11.0335 9.06667 10.6669 8.66667 10.1669 8.66667Z" fill="#796B5F"/>
</svg>
