<svg width="24" height="24" viewBox="0 0 24 24" fill="none" xmlns="http://www.w3.org/2000/svg">
<path d="M16.718 12.371H15.628L14.933 10.192C14.585 9.079 13.542 8.315 12.36 8.315H6.19394C5.01194 8.315 3.99194 9.057 3.62094 10.192L2.92496 12.371H1.85895C1.39595 12.371 1.00195 12.742 1.00195 13.228V13.715C1.00195 14.179 1.37295 14.573 1.85895 14.573H2.16095C1.99795 15.361 1.90594 16.149 1.90594 16.96V21.04C1.90594 21.503 2.27694 21.897 2.76294 21.897H4.17694C4.63994 21.897 5.03394 21.526 5.03394 21.04V19.719H13.588V21.04C13.588 21.503 13.9589 21.897 14.4449 21.897H15.8589C16.3229 21.897 16.7169 21.526 16.7169 21.04V16.937C16.7169 16.125 16.6239 15.337 16.4619 14.549H16.7629C17.2269 14.549 17.6199 14.178 17.6199 13.692V13.205C17.5749 12.765 17.181 12.371 16.718 12.371ZM4.43195 13.251L5.24396 10.725C5.38296 10.308 5.75395 10.03 6.19495 10.03H12.3609C12.8009 10.03 13.172 10.308 13.312 10.725L14.1239 13.251C14.1699 13.367 14.0769 13.483 13.9609 13.483H4.59595C4.47895 13.483 4.38595 13.368 4.43195 13.251ZM6.21695 17.401H4.50095C4.22295 17.401 3.96796 17.169 3.96796 16.868V16.057C3.96796 15.732 4.24595 15.5 4.57095 15.547L6.17096 15.802C6.37896 15.825 6.54195 15.988 6.58795 16.219L6.70395 16.775C6.79595 17.1 6.56395 17.401 6.21695 17.401ZM14.585 16.891C14.585 17.169 14.3539 17.424 14.0519 17.424H12.3369C12.0119 17.424 11.7569 17.122 11.8269 16.798L11.9429 16.241C11.9889 16.033 12.151 15.87 12.36 15.824L13.959 15.569C14.283 15.523 14.562 15.754 14.562 16.079V16.891H14.585V16.891Z" fill="#68D0C2"/>
<path d="M19.7073 4.07199H19.1973V5.46299H19.7073C20.1013 5.46299 20.4023 5.16099 20.4023 4.76699C20.4023 4.37299 20.1013 4.07199 19.7073 4.07199Z" fill="#68D0C2"/>
<path d="M22.4676 2.10199H17.1586C16.8566 2.10199 16.6016 2.35699 16.6016 2.65799V7.96699C16.6016 8.26799 16.8566 8.52299 17.1586 8.52299H19.1516V21.62C19.1516 21.782 19.2676 21.898 19.4296 21.898H20.2176C20.3796 21.898 20.4955 21.782 20.4955 21.62V8.52299H22.4426C22.7436 8.52299 22.9995 8.26799 22.9995 7.96699V2.65799C23.0225 2.35699 22.7686 2.10199 22.4676 2.10199ZM19.7086 6.20499H19.1985V7.17799C19.1985 7.24799 19.1516 7.29399 19.0826 7.29399H18.5496C18.4806 7.29399 18.4336 7.24799 18.4336 7.17799V3.51599C18.4336 3.39999 18.5265 3.30699 18.6425 3.30699H19.6635C20.4515 3.30699 21.1235 3.93299 21.1465 4.72099C21.1915 5.55599 20.5206 6.20499 19.7086 6.20499Z" fill="#68D0C2"/>
</svg>
