<svg width="18" height="11" viewBox="0 0 18 11" fill="none" xmlns="http://www.w3.org/2000/svg">
<g clip-path="url(#clip0_1788_8386)">
<path d="M9.00047 3.58621C8.0849 3.58621 7.34264 4.32044 7.34264 5.22581C7.34264 6.13118 8.0849 6.8654 9.00047 6.8654C9.91631 6.8654 10.6586 6.13118 10.6586 5.22581C10.6586 4.32044 9.91631 3.58621 9.00047 3.58621ZM9.00047 3.58621C8.0849 3.58621 7.34264 4.32044 7.34264 5.22581C7.34264 6.13118 8.0849 6.8654 9.00047 6.8654C9.91631 6.8654 10.6586 6.13118 10.6586 5.22581C10.6586 4.32044 9.91631 3.58621 9.00047 3.58621ZM17.7709 4.61622C17.7709 4.61622 13.9745 0 9.00047 0C4.02644 0 0.230055 4.61622 0.230055 4.61622C-0.0768142 4.95276 -0.0784044 5.49938 0.23562 5.82782C0.23562 5.82782 4.15099 10.4516 8.95913 10.4516C13.7673 10.4516 17.7611 5.82285 17.7611 5.82285C18.0735 5.49311 18.0823 4.94858 17.7709 4.61622ZM9.00047 8.9147C6.9401 8.9147 5.27008 7.26309 5.27008 5.22581C5.27008 3.18853 6.9401 1.53691 9.00047 1.53691C11.0608 1.53691 12.7309 3.18853 12.7309 5.22581C12.7309 7.26309 11.0608 8.9147 9.00047 8.9147ZM9.00047 3.58621C8.0849 3.58621 7.34264 4.32044 7.34264 5.22581C7.34264 6.13118 8.0849 6.8654 9.00047 6.8654C9.91631 6.8654 10.6586 6.13118 10.6586 5.22581C10.6586 4.32044 9.91631 3.58621 9.00047 3.58621Z" fill="#796B5F"/>
<path d="M0.193359 9.32007L17.3192 -0.194289" stroke="white" stroke-width="2"/>
<path d="M0.193359 9.32007L17.3192 -0.194289" stroke="#796B5F"/>
</g>
<defs>
<clipPath id="clip0_1788_8386">
<rect width="18" height="10.4516" fill="white"/>
</clipPath>
</defs>
</svg>
