<svg width="16" height="18" viewBox="0 0 16 18" fill="none" xmlns="http://www.w3.org/2000/svg">
<g clip-path="url(#clip0_2497_8174)">
<path d="M13.5593 6.843V2.27857H9.11575C9.11575 0.228585 7.00752 0 7.00752 0C4.67217 0 4.61538 2.27857 4.61538 2.27857H0.0567823L0 16.8644H6.92599V18H15.835V6.843H13.5593ZM3.38656 3.29774H4.61538L5.63455 3.32104V2.3106C5.65792 2.055 5.73428 1.80708 5.85877 1.58263C5.99418 1.34967 6.25334 1.04247 6.93909 1.02354C7.15117 1.06469 7.3549 1.14096 7.54186 1.24921C7.92623 1.4778 8.09803 1.79665 8.09803 2.28149V3.30066H10.3373V4.64887H3.38656V3.29774ZM6.92599 15.8452H1.01917L1.06722 3.29774H2.36302V5.66513H11.3565V3.29774H12.5343V6.843H6.92599V15.8452ZM14.8158 16.9808H7.94516V7.86217H14.8158V16.9808Z" fill="#796B5F"/>
</g>
<defs>
<clipPath id="clip0_2497_8174">
<rect width="15.835" height="18" fill="white"/>
</clipPath>
</defs>
</svg>
