<?xml version="1.0" encoding="utf-8"?>
<!-- Generator: Adobe Illustrator 25.3.1, SVG Export Plug-In . SVG Version: 6.00 Build 0)  -->
<svg version="1.1" id="Layer_1" xmlns="http://www.w3.org/2000/svg" xmlns:xlink="http://www.w3.org/1999/xlink" x="0px" y="0px"
	 width="24px" height="24px" viewBox="0 0 24 24" style="enable-background:new 0 0 24 24;" xml:space="preserve">
<style type="text/css">
	.st0{fill:#68D0C2;}
</style>
<g>
	<path class="st0" d="M14.7,16.1H2.1V6.5l8.6,4l0,0c0.2,0.1,0.3,0.1,0.5,0l8.6-4v4.6c0,0.3,0.2,0.6,0.6,0.6c0.3,0,0.6-0.2,0.6-0.6
		V3.5c0-0.1-0.1-0.3-0.2-0.4c-0.1-0.1-0.2-0.2-0.4-0.2H1.5C1.2,2.9,1,3.2,1,3.5v13.2c0,0.1,0.1,0.3,0.2,0.4s0.2,0.2,0.4,0.2h13.2
		c0.3,0,0.6-0.2,0.6-0.5C15.3,16.4,15.1,16.1,14.7,16.1L14.7,16.1z M19.7,4v1.3l-8.8,4.1L2.1,5.3V4H19.7z"/>
	<path class="st0" d="M20.2,13.9H18c-0.3,0-0.5,0.2-0.5,0.6c0,0.3,0.2,0.6,0.5,0.6h2.2c0.6,0,1.1,0.3,1.4,0.8c0.3,0.5,0.3,1.1,0,1.7
		c-0.3,0.5-0.8,0.8-1.4,0.8h-2l0.7-0.7c0.2-0.2,0.2-0.6,0-0.8c-0.2-0.2-0.6-0.2-0.8,0l-1.7,1.7c-0.1,0.1-0.2,0.2-0.2,0.4
		c0,0.1,0.1,0.3,0.2,0.4l1.7,1.7c0.1,0.1,0.2,0.2,0.4,0.2c0.1,0,0.3-0.1,0.4-0.2s0.2-0.2,0.2-0.4c0-0.1-0.1-0.3-0.2-0.4l-0.7-0.7h2
		c1,0,1.9-0.5,2.4-1.4s0.5-1.9,0-2.7C22.1,14.4,21.2,13.9,20.2,13.9L20.2,13.9z"/>
</g>
</svg>
