<svg width="24" height="24" viewBox="0 0 24 24" fill="none" xmlns="http://www.w3.org/2000/svg">
<g clip-path="url(#clip0_1034_2327)">
<path d="M22.6672 22.7334H20.7005C20.1005 22.7334 19.6339 22.2667 19.6339 21.6667V20.8C19.6339 20.7 19.5672 20.6334 19.4672 20.6334H4.80055C4.70055 20.6334 4.63388 20.7 4.63388 20.8V21.6667C4.63388 22.2667 4.16721 22.7334 3.56721 22.7334H1.50055C0.967213 22.7334 0.43388 22.3334 0.267213 21.8334C0.13388 21.4 -0.06612 20.8334 0.000546677 20.2334C0.300547 18 0.600547 15.8334 1.16721 13.7334C1.26721 13.4 1.33388 13.1 1.43388 12.7667C1.96721 10.8667 2.46721 9.06669 2.30055 7.06669C2.26721 6.83336 2.26721 6.60003 2.23388 6.36669C2.10055 4.90003 1.93388 3.40003 2.53388 2.06669C2.76721 1.56669 3.40055 1.26669 3.86721 1.26669H20.8006C21.4005 1.26669 21.8672 1.73336 21.8672 2.33336V9.66669C21.8672 9.70003 21.8672 9.73336 21.8672 9.76669C21.9672 10.2 22.1005 10.6 22.2005 11.0334C22.4339 11.9667 22.7006 12.9334 23.0005 13.8667C23.6339 15.9334 24.3006 18.7 23.8339 21.7C23.7672 22.2667 23.2672 22.7334 22.6672 22.7334ZM4.83388 19.7334H19.5005C20.1005 19.7334 20.5672 20.2 20.5672 20.8V21.6667C20.5672 21.7667 20.6339 21.8334 20.7339 21.8334H22.6672C22.7672 21.8334 22.9006 21.7334 22.9339 21.6334C23.3672 18.8334 22.7339 16.2 22.1005 14.2C21.8006 13.2334 21.5672 12.2667 21.3006 11.3334C21.2006 10.9 21.0672 10.4667 20.9672 10.0334C20.9339 9.96669 20.9339 9.90003 20.9672 9.83336C20.9672 9.80003 20.9672 9.76669 20.9672 9.73336V2.40003C20.9672 2.30003 20.9005 2.23336 20.8006 2.23336H3.86721C3.66721 2.23336 3.43388 2.36669 3.36721 2.50003C2.86721 3.60003 3.00055 4.96669 3.13388 6.30003C3.16721 6.53336 3.16721 6.76669 3.20055 7.00003C3.36721 9.16669 2.83388 11.1334 2.30055 13.0334C2.23388 13.3334 2.13388 13.6667 2.06721 13.9667C1.50055 16 1.20055 18.1334 0.93388 20.3334C0.900547 20.7 1.03388 21.1667 1.16721 21.5334C1.20055 21.6667 1.36721 21.8 1.50055 21.8H3.60055C3.70055 21.8 3.76721 21.7334 3.76721 21.6334V20.7667C3.76721 20.2 4.23388 19.7334 4.83388 19.7334Z" fill="#796B5F"/>
<path d="M11.9677 17.9C8.43441 17.9 4.90108 17.9 1.36775 17.9C1.13441 17.9 0.967747 17.8334 0.801081 17.7667C0.767747 17.7334 0.701081 17.7 0.667747 17.6667C0.434414 17.6 0.301081 17.3334 0.367747 17.1C0.434414 16.8667 0.701081 16.7334 0.934414 16.8C1.00108 16.8334 1.06775 16.8667 1.13441 16.9C1.20108 16.9334 1.30108 16.9667 1.33441 16.9667C8.40108 16.9667 15.4677 16.9667 22.5011 16.9667C22.5344 16.9667 22.6344 16.9334 22.7011 16.9C22.7677 16.8667 22.8344 16.8334 22.9011 16.8C23.1344 16.7334 23.4011 16.8334 23.4677 17.1C23.5344 17.3334 23.4344 17.6 23.1677 17.6667C23.1344 17.6667 23.0677 17.7 23.0344 17.7334C22.8677 17.8 22.7011 17.8667 22.4677 17.8667C19.0344 17.9 15.5011 17.9 11.9677 17.9Z" fill="#796B5F"/>
<path d="M19.334 9.96666C19.0673 9.96666 18.8673 9.76666 18.8673 9.5C18.8673 8.26666 18.734 7.66667 18.434 7.36667C18.134 7.06667 17.5007 6.96666 16.3007 6.96666C15.9673 6.96666 15.6673 6.96666 15.334 6.93333C14.134 6.86666 13.134 6.8 12.3007 7.73333C12.134 7.93333 11.834 7.93333 11.6673 7.76666C11.5007 7.6 11.4673 7.3 11.634 7.13333C12.734 5.86667 14.1673 5.93333 15.4007 6C15.7007 6.03333 16.0007 6.03333 16.334 6.03333C17.634 6.03333 18.534 6.13333 19.134 6.7C19.7007 7.26667 19.834 8.2 19.834 9.5C19.8007 9.73333 19.6007 9.96666 19.334 9.96666Z" fill="#796B5F"/>
<path d="M4.4006 9.96669C4.36727 9.96669 4.33393 9.96669 4.3006 9.96669C4.06727 9.93336 3.9006 9.66669 3.93393 9.43336C4.46727 6.56669 4.66727 6.40002 7.8006 6.40002H9.5006C12.1006 6.40002 12.5673 6.90002 12.6006 9.50002C12.6006 9.76669 12.4006 9.96669 12.1339 9.96669C11.8673 9.96669 11.6673 9.76669 11.6673 9.50002C11.6339 7.40002 11.5673 7.30002 9.46727 7.30002H7.76727C6.46727 7.30002 5.73393 7.30002 5.43393 7.53336C5.13393 7.76669 5.03393 8.40002 4.8006 9.56669C4.8006 9.80002 4.63393 9.96669 4.4006 9.96669Z" fill="#796B5F"/>
<path d="M6.16725 10.3334C5.46725 10.3334 4.73392 10.2667 4.03392 10.2334C3.70059 10.2 3.36725 10.1667 3.03392 10.1667C2.76725 10.1667 2.60059 9.93337 2.60059 9.66671C2.60059 9.40004 2.83392 9.23338 3.10059 9.23338C3.43392 9.26671 3.76725 9.26671 4.10059 9.30004C4.80059 9.36671 5.56725 9.40004 6.26725 9.40004C9.36725 9.36671 12.4339 9.33338 15.5339 9.26671L19.5006 9.20004C19.9006 9.20004 20.3006 9.20004 20.6673 9.20004H21.2006C21.4673 9.20004 21.6673 9.40004 21.6673 9.66671C21.6673 9.93337 21.4673 10.1334 21.2006 10.1334H20.6673C20.2673 10.1334 19.9006 10.1334 19.5006 10.1334L15.5339 10.2C12.4339 10.2334 9.36725 10.3 6.26725 10.3334C6.26725 10.3334 6.23392 10.3334 6.16725 10.3334Z" fill="#796B5F"/>
</g>
<defs>
<clipPath id="clip0_1034_2327">
<rect width="24" height="24" fill="white"/>
</clipPath>
</defs>
</svg>
