<?xml version="1.0" encoding="utf-8"?>
<!-- Generator: Adobe Illustrator 26.0.2, SVG Export Plug-In . SVG Version: 6.00 Build 0)  -->
<svg version="1.1" id="Layer_1" xmlns="http://www.w3.org/2000/svg" xmlns:xlink="http://www.w3.org/1999/xlink" x="0px" y="0px"
	 viewBox="0 0 24 24" style="enable-background:new 0 0 24 24;" xml:space="preserve">
<style type="text/css">
	.st0{fill:none;}
	.st1{fill:#FFFFFF;}
</style>
<rect class="st0" width="24" height="24"/>
<path class="st1" d="M22.9,13.9c-0.3-0.9-0.6-1.9-0.8-2.8c-0.1-0.4-0.2-0.8-0.3-1.3V9.8V2.4c0-0.6-0.5-1.1-1.1-1.1H3.9
	c-0.5,0-1.1,0.3-1.3,0.8C1.9,3.5,2.1,5,2.2,6.5c0,0.2,0,0.5,0.1,0.7c0.2,2-0.3,3.8-0.9,5.7c-0.1,0.3-0.2,0.6-0.3,1
	c-0.5,2-0.8,4.2-1.1,6.4c-0.1,0.6,0.1,1.2,0.3,1.6c0.2,0.5,0.7,0.9,1.2,0.9h2.1c0.6,0,1.1-0.5,1.1-1.1v-0.9c0-0.1,0.1-0.2,0.2-0.2
	h14.6c0.1,0,0.2,0.1,0.2,0.2v0.9c0,0.6,0.5,1.1,1.1,1.1h2c0.6,0,1.1-0.5,1.2-1C24.2,18.7,23.5,15.9,22.9,13.9z M3.4,2.6
	c0.1-0.1,0.3-0.3,0.5-0.3h16.8c0.1,0,0.2,0.1,0.2,0.2v6.8h-0.3c-0.3,0-0.6,0-0.8,0c0-1.1-0.2-2-0.7-2.5c-0.7-0.6-1.6-0.7-2.9-0.7
	c-0.3,0-0.6,0-0.9,0C14.2,6,12.8,6,11.8,7c-0.5-0.4-1.2-0.5-2.4-0.5H7.8C4.7,6.5,4.5,6.7,4,9.4c-0.3,0-0.5,0-0.8-0.1
	c0-0.7,0.1-1.4,0-2.2c0-0.2,0-0.5-0.1-0.7C3,5.1,2.9,3.7,3.4,2.6z M11.6,9.4c-1.8,0-3.6,0.1-5.4,0.1c-0.5,0-0.9,0-1.4,0
	c0.2-1,0.3-1.6,0.6-1.8c0.3-0.2,1-0.2,2.3-0.2h1.7C11.4,7.4,11.5,7.5,11.6,9.4z M12.5,9.4c0-0.7-0.1-1.2-0.2-1.7
	c0.8-0.8,1.8-0.8,3-0.7c0.3,0,0.6,0,1,0c1.2,0,1.8,0.1,2.1,0.4c0.3,0.3,0.4,0.8,0.4,1.8l-3.3,0.1C14.4,9.4,13.5,9.4,12.5,9.4z
	 M2.1,14c0.1-0.3,0.2-0.6,0.2-0.9c0.3-0.9,0.5-1.9,0.7-2.9l0,0c0.3,0,0.7,0,1,0.1c0.7,0,1.4,0.1,2.1,0.1c0.1,0,0.1,0,0.1,0
	c3.1,0,6.2-0.1,9.2-0.1l4-0.1c0.4,0,0.8,0,1.2,0h0.3c0.1,0.4,0.2,0.8,0.3,1.2c0.3,0.9,0.5,1.9,0.8,2.9c0.3,0.8,0.5,1.7,0.7,2.7h-0.1
	c-0.1,0-0.2,0.1-0.2,0.1c-7,0-13.9,0-20.9,0c0,0,0,0-0.1,0C1.6,15.9,1.8,14.9,2.1,14z M22.8,21.6c0,0.1-0.2,0.2-0.3,0.2h-1.9
	c-0.1,0-0.2-0.1-0.2-0.2v-0.9c0-0.6-0.5-1.1-1.1-1.1H4.8c-0.6,0-1.1,0.5-1.1,1v0.9c0,0.1-0.1,0.2-0.2,0.2h-2c-0.1,0-0.3-0.1-0.3-0.3
	C1.1,21,0.9,20.6,1,20.2c0.1-0.8,0.2-1.7,0.3-2.5c0.1,0,0.1,0,0.2,0c3.5,0,7,0,10.4,0s7,0,10.3,0c0.2,0,0.3,0,0.5-0.1
	C23,19,23,20.3,22.8,21.6z"/>
</svg>
