<svg width="18" height="18" viewBox="0 0 18 18" fill="none" xmlns="http://www.w3.org/2000/svg">
<path d="M11.6199 10.5H11.0276L10.8177 10.2975C11.5524 9.4425 11.9947 8.3325 11.9947 7.125C11.9947 4.4325 9.81316 2.25 7.12186 2.25C4.43055 2.25 2.24902 4.4325 2.24902 7.125C2.24902 9.8175 4.43055 12 7.12186 12C8.32882 12 9.43833 11.5575 10.2929 10.8225L10.4954 11.0325V11.625L14.2437 15.3675L15.3607 14.25L11.6199 10.5ZM7.12186 10.5C5.25519 10.5 3.74836 8.9925 3.74836 7.125C3.74836 5.2575 5.25519 3.75 7.12186 3.75C8.98853 3.75 10.4954 5.2575 10.4954 7.125C10.4954 8.9925 8.98853 10.5 7.12186 10.5Z" fill="#68D0C2"/>
</svg>
