<svg width="18" height="18" viewBox="0 0 18 18" fill="none" xmlns="http://www.w3.org/2000/svg">
<path d="M16.5 6C16.5 5.03013 15.868 4.20364 15 3.89062L15 2.25C15 1.83579 14.6642 1.5 14.25 1.5C13.8358 1.5 13.5 1.83579 13.5 2.25L13.5 3.88916C12.6313 4.2018 12 5.02963 12 6C12 6.96987 12.632 7.79635 13.5 8.10937L13.5 15.75C13.5 16.1642 13.8358 16.5 14.25 16.5C14.6642 16.5 15 16.1642 15 15.75L15 8.10937C15.868 7.79635 16.5 6.96987 16.5 6ZM15 6C15 6.4231 14.6731 6.75 14.25 6.75C13.8269 6.75 13.5 6.4231 13.5 6C13.5 5.5769 13.8269 5.25 14.25 5.25C14.6731 5.25 15 5.5769 15 6Z" fill="#68D0C2"/>
<path d="M11.25 11.25C11.25 10.2801 10.618 9.45365 9.75 9.14062L9.75 2.25C9.75 1.83579 9.41422 1.5 9 1.5C8.58578 1.5 8.25 1.83579 8.25 2.25L8.25 9.13916C7.3813 9.4518 6.75 10.2796 6.75 11.25C6.75 12.2199 7.382 13.0464 8.25 13.3594L8.25 15.75C8.25 16.1642 8.58578 16.5 9 16.5C9.41422 16.5 9.75 16.1642 9.75 15.75L9.75 13.3594C10.618 13.0464 11.25 12.2199 11.25 11.25ZM9.75 11.25C9.75 11.6731 9.4231 12 9 12C8.5769 12 8.25 11.6731 8.25 11.25C8.25 10.8269 8.5769 10.5 9 10.5C9.4231 10.5 9.75 10.8269 9.75 11.25Z" fill="#68D0C2"/>
<path d="M6 6C6 5.03013 5.368 4.20364 4.5 3.89062L4.5 2.25C4.5 1.83579 4.16422 1.5 3.75 1.5C3.33578 1.5 3 1.83579 3 2.25L3 3.89062C2.132 4.20364 1.5 5.03013 1.5 6C1.5 6.97037 2.1313 7.7982 3 8.11084L3 15.75C3 16.1642 3.33578 16.5 3.75 16.5C4.16422 16.5 4.5 16.1642 4.5 15.75L4.5 8.10937C5.368 7.79635 6 6.96987 6 6ZM4.5 6C4.5 6.4231 4.1731 6.75 3.75 6.75C3.3269 6.75 3 6.4231 3 6C3 5.5769 3.3269 5.25 3.75 5.25C4.1731 5.25 4.5 5.5769 4.5 6Z" fill="#68D0C2"/>
</svg>
