<svg width="24" height="24" viewBox="0 0 24 24" fill="none" xmlns="http://www.w3.org/2000/svg">
<path d="M22.4037 3.66713C22.3287 3.48213 22.1637 3.34413 21.9517 3.28813C21.8047 3.24813 21.6317 3.23213 21.4407 3.24413C20.9417 3.27313 20.4947 3.47713 20.0327 3.88813C19.7657 4.12413 19.4987 4.36013 19.2317 4.59513L18.6687 5.09013L15.5497 4.65513C15.3777 4.63313 15.2137 4.69213 15.0977 4.81013L14.9577 4.95713C14.8577 5.06213 14.8147 5.21013 14.8447 5.35313C14.8757 5.49513 14.9757 5.61213 15.1117 5.66613L17.1117 6.45813C16.6607 6.85513 16.2097 7.25313 15.7597 7.65013C15.6707 7.72913 15.6167 7.74313 15.5157 7.73013C15.3717 7.71013 15.0007 7.66513 14.6347 7.62113C14.2877 7.57913 13.9467 7.53813 13.8067 7.51913C13.3857 7.46113 13.1487 7.70513 12.9427 7.91713L12.9057 7.95513C12.8557 8.00413 12.8337 8.07713 12.8447 8.15013C12.8567 8.21913 12.9037 8.27913 12.9707 8.31213L14.5137 9.04513C14.5917 9.08013 14.5907 9.09013 14.5807 9.14213C14.5717 9.19913 14.5427 9.37313 14.6667 9.49813C14.7317 9.56613 14.8267 9.60213 14.9407 9.60213C14.9857 9.60213 15.0237 9.59613 15.0447 9.59313C16.0447 9.45113 16.9417 9.09313 17.7137 8.52813C17.9787 8.33313 18.2547 8.14013 18.4927 7.97413L18.6027 7.90013C18.6197 7.88813 18.6307 7.88513 18.6647 7.88613C18.6857 7.89013 18.7027 7.90113 18.7157 7.92013C19.0267 8.36613 19.6667 9.29413 20.0017 9.78113C20.0597 9.86713 20.1927 10.0681 20.4287 10.0681C20.4977 10.0681 20.5687 10.0501 20.6427 10.0141C20.8017 9.93813 21.2237 9.73513 21.0807 9.24813L20.9267 8.72513C20.7107 7.99513 20.4807 7.21713 20.2417 6.44213C20.2317 6.40913 20.2307 6.40013 20.2307 6.39913C20.2327 6.39613 20.2387 6.38713 20.2647 6.36213C20.4627 6.17113 22.2017 4.48813 22.3427 4.25213C22.4567 4.05913 22.4787 3.85213 22.4037 3.66713ZM7.99273 18.1911C7.86273 18.1911 7.77273 18.2911 7.77273 18.4111V18.8011C7.77273 18.9311 7.86273 19.0311 7.99273 19.0311C8.12273 19.0311 8.22273 18.9301 8.22273 18.8011V18.4111C8.22273 18.2911 8.12273 18.1911 7.99273 18.1911ZM7.99273 18.1911C7.86273 18.1911 7.77273 18.2911 7.77273 18.4111V18.8011C7.77273 18.9311 7.86273 19.0311 7.99273 19.0311C8.12273 19.0311 8.22273 18.9301 8.22273 18.8011V18.4111C8.22273 18.2911 8.12273 18.1911 7.99273 18.1911ZM15.7127 10.2111H12.4527V6.61113C12.4527 6.49113 12.3527 6.39113 12.2227 6.39113H5.26273C5.14273 6.39113 5.04273 6.49113 5.04273 6.61113V10.2111H1.78273C1.66273 10.2111 1.55273 10.3111 1.55273 10.4411V20.5411C1.55273 20.6611 1.66273 20.7611 1.78273 20.7611H15.7137C15.8337 20.7611 15.9337 20.6611 15.9337 20.5411V10.4411C15.9327 10.3121 15.8327 10.2111 15.7127 10.2111ZM2.92173 13.4711V12.2621H4.12173V13.4711H2.92173ZM4.12273 15.1011V16.3011H2.92273V15.1011H4.12273ZM6.48173 9.37213V7.83213H8.02173V9.37213H6.48173ZM8.02173 13.8011V15.3411H6.48173V13.8011H8.02173ZM6.48173 10.8211H8.02173V12.3611H6.48173V10.8211ZM11.0117 13.8011V15.3411H9.47173V13.8011H11.0117ZM9.47273 9.37213V7.83213H11.0127V9.37213H9.47273ZM9.47273 10.8211H11.0127V12.3611H9.47273V10.8211ZM8.52173 20.3111H6.48173V16.9311H8.52173V20.3111ZM11.0117 20.3111H8.97173V16.9311H11.0117V20.3111ZM13.3727 13.4711V12.2621H14.5617V13.4711H13.3727ZM14.5627 15.1011V16.3011H13.3737V15.1011H14.5627ZM9.49273 19.0311C9.62273 19.0311 9.72273 18.9301 9.72273 18.8011V18.4111C9.72273 18.2911 9.62273 18.1911 9.49273 18.1911C9.37273 18.1911 9.27273 18.2911 9.27273 18.4111V18.8011C9.27173 18.9311 9.37273 19.0311 9.49273 19.0311ZM7.99273 19.0311C8.12273 19.0311 8.22273 18.9301 8.22273 18.8011V18.4111C8.22273 18.2911 8.12273 18.1911 7.99273 18.1911C7.86273 18.1911 7.77273 18.2911 7.77273 18.4111V18.8011C7.77173 18.9311 7.86173 19.0311 7.99273 19.0311ZM2.00173 10.6621V20.3111H5.04173V10.6621H2.00173ZM4.12273 16.3011H2.92273V15.1011H4.12273V16.3011ZM2.92173 12.2611H4.12173V13.4701H2.92173V12.2611ZM5.49273 6.84113V20.3101H6.03273V16.7101C6.03273 16.5801 6.13273 16.4811 6.25273 16.4811H11.2327C11.3527 16.4811 11.4527 16.5811 11.4527 16.7101V20.3101H12.0027V6.84113H5.49273ZM11.0117 15.3411H9.47173V13.8011H11.0117V15.3411ZM9.47273 7.83213H11.0127V9.37213H9.47273V7.83213ZM11.0117 10.8211V12.3611H9.47173V10.8211H11.0117ZM8.02173 15.3411H6.48173V13.8011H8.02173V15.3411ZM6.48173 7.83213H8.02173V9.37213H6.48173V7.83213ZM8.02173 10.8211V12.3611H6.48173V10.8211H8.02173ZM9.72273 18.4111V18.8011C9.72273 18.9311 9.62273 19.0311 9.49273 19.0311C9.37273 19.0311 9.27273 18.9301 9.27273 18.8011V18.4111C9.27273 18.2911 9.37273 18.1911 9.49273 18.1911C9.62273 18.1911 9.72273 18.2911 9.72273 18.4111ZM8.22273 18.4111V18.8011C8.22273 18.9311 8.12273 19.0311 7.99273 19.0311C7.86273 19.0311 7.77273 18.9301 7.77273 18.8011V18.4111C7.77273 18.2911 7.86273 18.1911 7.99273 18.1911C8.12273 18.1911 8.22273 18.2911 8.22273 18.4111ZM12.4527 10.6621V20.3111H15.4837V10.6621H12.4527ZM14.5627 16.3011H13.3737V15.1011H14.5627V16.3011ZM13.3727 12.2611H14.5617V13.4701H13.3727V12.2611ZM8.24273 7.38113H6.25273C6.13273 7.38113 6.03273 7.48113 6.03273 7.61113V9.60113C6.03273 9.72113 6.13273 9.82113 6.25273 9.82113H8.24273C8.37273 9.82113 8.47273 9.72113 8.47273 9.60113V7.61113C8.47273 7.48113 8.37273 7.38113 8.24273 7.38113ZM8.02173 9.37213H6.48173V7.83213H8.02173V9.37213ZM11.2317 7.38113H9.24173C9.11173 7.38113 9.02173 7.48113 9.02173 7.61113V9.60113C9.02173 9.72113 9.11173 9.82113 9.24173 9.82113H11.2317C11.3517 9.82113 11.4517 9.72113 11.4517 9.60113V7.61113C11.4527 7.48113 11.3527 7.38113 11.2317 7.38113ZM11.0117 9.37213H9.47173V7.83213H11.0117V9.37213ZM8.24273 10.3721H6.25273C6.13273 10.3721 6.03273 10.4721 6.03273 10.5921V12.5821C6.03273 12.7121 6.13273 12.8121 6.25273 12.8121H8.24273C8.37273 12.8121 8.47273 12.7121 8.47273 12.5821V10.5921C8.47273 10.4721 8.37273 10.3721 8.24273 10.3721ZM8.02173 12.3611H6.48173V10.8211H8.02173V12.3611ZM11.2317 10.3721H9.24173C9.11173 10.3721 9.02173 10.4721 9.02173 10.5921V12.5821C9.02173 12.7121 9.11173 12.8121 9.24173 12.8121H11.2317C11.3517 12.8121 11.4517 12.7121 11.4517 12.5821V10.5921C11.4527 10.4721 11.3527 10.3721 11.2317 10.3721ZM11.0117 12.3611H9.47173V10.8211H11.0117V12.3611ZM11.2317 13.3511H9.24173C9.11173 13.3511 9.02173 13.4521 9.02173 13.5811V15.5601C9.02173 15.6911 9.11173 15.7901 9.24173 15.7901H11.2317C11.3517 15.7901 11.4517 15.6901 11.4517 15.5601V13.5811C11.4527 13.4511 11.3527 13.3511 11.2317 13.3511ZM11.0117 15.3411H9.47173V13.8011H11.0117V15.3411ZM8.24273 13.3511H6.25273C6.13273 13.3511 6.03273 13.4521 6.03273 13.5811V15.5601C6.03273 15.6911 6.13273 15.7901 6.25273 15.7901H8.24273C8.37273 15.7901 8.47273 15.6901 8.47273 15.5601V13.5811C8.47273 13.4511 8.37273 13.3511 8.24273 13.3511ZM8.02173 15.3411H6.48173V13.8011H8.02173V15.3411ZM4.34173 11.8121H2.70173C2.57173 11.8121 2.47173 11.9121 2.47173 12.0421V13.6921C2.47173 13.8111 2.57173 13.9211 2.70173 13.9211H4.34173C4.47173 13.9211 4.57173 13.8111 4.57173 13.6921V12.0421C4.57173 11.9121 4.47273 11.8121 4.34173 11.8121ZM4.12273 13.4711H2.92273V12.2621H4.12273V13.4711ZM14.7927 11.8121H13.1427C13.0227 11.8121 12.9227 11.9121 12.9227 12.0421V13.6921C12.9227 13.8111 13.0227 13.9211 13.1427 13.9211H14.7927C14.9127 13.9211 15.0127 13.8111 15.0127 13.6921V12.0421C15.0127 11.9121 14.9127 11.8121 14.7927 11.8121ZM14.5627 13.4711H13.3737V12.2621H14.5627V13.4711ZM8.22273 18.4111V18.8011C8.22273 18.9311 8.12273 19.0311 7.99273 19.0311C7.86273 19.0311 7.77273 18.9301 7.77273 18.8011V18.4111C7.77273 18.2911 7.86273 18.1911 7.99273 18.1911C8.12273 18.1911 8.22273 18.2911 8.22273 18.4111ZM9.72273 18.4111V18.8011C9.72273 18.9311 9.62273 19.0311 9.49273 19.0311C9.37273 19.0311 9.27273 18.9301 9.27273 18.8011V18.4111C9.27273 18.2911 9.37273 18.1911 9.49273 18.1911C9.62273 18.1911 9.72273 18.2911 9.72273 18.4111ZM4.34173 14.6511H2.70173C2.57173 14.6511 2.47173 14.7511 2.47173 14.8711V16.5201C2.47173 16.6511 2.57173 16.7501 2.70173 16.7501H4.34173C4.47173 16.7501 4.57173 16.6501 4.57173 16.5201V14.8711C4.57173 14.7511 4.47273 14.6511 4.34173 14.6511ZM4.12273 16.3011H2.92273V15.1011H4.12273V16.3011ZM14.7927 14.6511H13.1427C13.0227 14.6511 12.9227 14.7511 12.9227 14.8711V16.5311C12.9227 16.6511 13.0227 16.7511 13.1427 16.7511H14.7927C14.9127 16.7511 15.0127 16.6511 15.0127 16.5311V14.8711C15.0127 14.7511 14.9127 14.6511 14.7927 14.6511ZM14.5627 16.3011H13.3737V15.1011H14.5627V16.3011Z" fill="#68D0C2"/>
</svg>
