<?xml version="1.0" encoding="utf-8"?>
<!-- Generator: Adobe Illustrator 26.0.2, SVG Export Plug-In . SVG Version: 6.00 Build 0)  -->
<svg version="1.1" id="Layer_1" xmlns="http://www.w3.org/2000/svg" xmlns:xlink="http://www.w3.org/1999/xlink" x="0px" y="0px"
	 viewBox="0 0 24 24" style="enable-background:new 0 0 24 24;" xml:space="preserve">
<style type="text/css">
	.st0{fill:#FFFFFF;}
</style>
<g>
	<path class="st0" d="M21.2,18.1c-0.2-0.6-0.6-1-1.2-1.3c-0.5-0.3-1.1-0.3-1.7-0.1c-0.5,0.2-1,0.6-1.2,1.1l-2.8-1
		c0.1-0.1,0.1-0.3,0.1-0.5c0-0.4-0.1-0.8-0.3-1.1l1.6-0.9l1.9-1.1c0.2,0.1,0.3,0.2,0.6,0.2h0.1c0.5,0,1-0.4,1-1
		c0-0.3-0.1-0.5-0.2-0.8c-0.2-0.2-0.4-0.3-0.7-0.4c-0.3,0-0.5,0.1-0.8,0.2c-0.2,0.2-0.3,0.4-0.4,0.7c0,0.2,0,0.3,0.1,0.4l-1.5,0.8
		c0-6.6,0-10.5,0-11.4c0-0.7-0.2-1.2-0.6-1.6C14.6,0,13.7,0,13.5,0c-0.3,0-6.7,0-8.6,0C4.2,0,3.6,0.2,3.2,0.6
		C2.7,1.3,2.7,2.1,2.7,2.2v19.6c0,0.7,0.2,1.2,0.6,1.6C3.9,24,4.9,24,5,24c0.2,0,3,0,5.5,0c1.3,0,2.5,0,3.1,0c0.7,0,1.3-0.2,1.7-0.6
		c0.6-0.6,0.6-1.4,0.6-1.5v-0.2c0,0,0-1.5,0-3.6l1,0.4c-0.1,0.4-0.1,0.8,0.1,1.2c0.2,0.6,0.6,1,1.2,1.3c0.3,0.1,0.6,0.2,1,0.2
		c0.8,0,1.6-0.5,2-1.3C21.3,19.3,21.4,18.7,21.2,18.1z M18,12c0.1-0.1,0.2-0.1,0.3-0.1c0.1,0,0.2,0.1,0.3,0.2
		c0.1,0.1,0.1,0.2,0.1,0.3c0,0.3-0.2,0.4-0.5,0.4s-0.4-0.2-0.4-0.5C17.8,12.2,17.9,12.1,18,12z M14.9,22.9c-0.3,0.3-0.7,0.4-1.2,0.5
		c-2,0-8.5,0-8.6,0c0,0-0.8,0.1-1.3-0.4c-0.3-0.3-0.4-0.7-0.4-1.2V2.2c0,0,0-0.7,0.4-1.1C4,0.8,4.4,0.6,5,0.6c2,0,8.5,0,8.6,0
		c0,0,0.8-0.1,1.3,0.4c0.3,0.3,0.4,0.7,0.4,1.2c0,1.1,0,7,0,11.7l-1.6,0.9c-0.3-0.2-0.6-0.3-0.9-0.3c-0.5,0-0.9,0.1-1.3,0.4
		c-0.3,0.2-0.5,0.6-0.6,0.9c0,0,0,0-0.1,0H8.4v-6h1.9V12c-0.4,0.1-0.7,0.5-0.8,0.9c0,0.3,0.1,0.5,0.2,0.8c0.2,0.2,0.4,0.3,0.7,0.4
		h0.1c0.5,0,1-0.4,1-1c0-0.3-0.1-0.5-0.2-0.8C11.2,12.1,11,12,10.8,12V9.5c0-0.2-0.1-0.3-0.3-0.3H8.1c-0.2,0-0.3,0.1-0.3,0.3v6.6
		c0,0.2,0.1,0.3,0.3,0.3h2.7c0,0.4,0.2,0.7,0.4,1c0.3,0.4,0.7,0.6,1.2,0.6c0.1,0,0.1,0,0.1,0c0.4,0,0.8-0.1,1.1-0.4
		c0.1-0.1,0.2-0.1,0.2-0.2l1.3,0.5c0.1,2.3,0.1,3.8,0.1,3.8v0.2C15.3,21.8,15.3,22.5,14.9,22.9z M13.8,16.3c0,0.3-0.2,0.6-0.4,0.8
		c-0.2,0.2-0.6,0.3-0.9,0.3s-0.6-0.2-0.8-0.4s-0.3-0.6-0.3-0.9c0-0.3,0.2-0.6,0.4-0.8s0.5-0.3,0.8-0.3h0.1c0.3,0,0.6,0.2,0.8,0.4
		C13.7,15.7,13.8,16,13.8,16.3z M10.5,12.6c0.2,0,0.3,0.1,0.3,0.2c0.1,0.1,0.1,0.2,0.1,0.3c0,0.3-0.2,0.4-0.5,0.4
		c-0.1,0-0.2-0.1-0.3-0.2C10,13.2,10,13.1,10,13C10.1,12.8,10.3,12.6,10.5,12.6z M20.5,19.6c-0.4,0.8-1.4,1.2-2.2,0.8
		c-0.8-0.4-1.2-1.4-0.8-2.2c0.2-0.4,0.5-0.7,0.9-0.9c0.2-0.1,0.4-0.1,0.6-0.1s0.5,0.1,0.7,0.2C20.6,17.8,20.9,18.8,20.5,19.6z"/>
	<path class="st0" d="M11.9,2.4h0.4c0.2,0,0.3-0.1,0.3-0.3c0-0.2-0.1-0.3-0.3-0.3h-0.4c-0.2,0-0.3,0.1-0.3,0.3
		C11.6,2.3,11.7,2.4,11.9,2.4z"/>
	<path class="st0" d="M10.8,2.4c0.2,0,0.3-0.1,0.3-0.3c0-0.2-0.1-0.3-0.3-0.3h-3c-0.2,0-0.3,0.1-0.3,0.3c0,0.2,0.1,0.3,0.3,0.3H10.8
		z"/>
	<path class="st0" d="M6.5,8.7C6.8,8.7,7,8.5,7,8.2v-2c0-0.3-0.2-0.5-0.5-0.5h-2C4.2,5.7,4,5.9,4,6.2v2c0,0.3,0.2,0.5,0.5,0.5H6.5z
		 M4.6,6.3h1.9v1.9H4.6V6.3z"/>
	<path class="st0" d="M10.3,5.7h-2C8,5.7,7.8,5.9,7.8,6.2v2c0,0.3,0.2,0.5,0.5,0.5h2c0.3,0,0.5-0.2,0.5-0.5v-2
		C10.8,5.9,10.6,5.7,10.3,5.7z M10.3,8.1L10.3,8.1H8.4V6.3h1.9V8.1z"/>
	<path class="st0" d="M12,12.3h2c0.3,0,0.5-0.2,0.5-0.5v-2c0-0.3-0.2-0.5-0.5-0.5h-2c-0.3,0-0.5,0.2-0.5,0.5v2
		C11.5,12.1,11.7,12.3,12,12.3z M12.1,9.8H14v1.9h-1.9V9.8z"/>
	<path class="st0" d="M6.7,18.2h-2c-0.3,0-0.5,0.2-0.5,0.5v2c0,0.3,0.2,0.5,0.5,0.5h2c0.3,0,0.5-0.2,0.5-0.5v-2
		C7.2,18.4,7,18.2,6.7,18.2z M6.7,20.6H6.6H4.8v-1.9h1.9V20.6z"/>
</g>
</svg>
