<svg width="24" height="24" viewBox="0 0 24 24" fill="none" xmlns="http://www.w3.org/2000/svg">
<g clip-path="url(#clip0_1034_2288)">
<rect width="24" height="24" fill="white"/>
<path d="M21.1669 18.1333C20.9669 17.5667 20.5669 17.1333 20.0002 16.8666C19.4669 16.6 18.8669 16.5667 18.3002 16.8C17.7669 17 17.3002 17.4 17.0669 17.9L14.3002 16.8666C14.3669 16.7333 14.4002 16.5666 14.4002 16.4C14.4335 16 14.3335 15.6 14.1002 15.2666L15.6669 14.3666C15.7002 14.3666 15.7002 14.3333 15.7002 14.3333L17.6335 13.2333C17.8002 13.3666 17.9669 13.4333 18.2002 13.4667C18.2335 13.4667 18.2669 13.4667 18.3002 13.4667C18.8335 13.4667 19.3002 13.0666 19.3335 12.5C19.3669 12.2333 19.2669 11.9667 19.1002 11.7333C18.9335 11.5333 18.6669 11.4 18.4002 11.3666C18.1335 11.3333 17.8669 11.4333 17.6335 11.6C17.4335 11.7666 17.3002 12.0333 17.2669 12.3C17.2669 12.4667 17.2669 12.6 17.3335 12.7333L15.8335 13.5666C15.8335 6.96665 15.8335 3.03332 15.8335 2.16665C15.8335 1.46665 15.6335 0.933317 15.2335 0.56665C14.6002 -0.03335 13.6669 -1.67284e-05 13.5335 -1.67284e-05C13.2335 -1.67284e-05 6.86686 -0.0333501 4.9002 -1.67284e-05C4.2002 -1.67284e-05 3.63353 0.233317 3.23353 0.633317C2.7002 1.26665 2.7002 2.09998 2.7002 2.19998V21.8V21.8333C2.7002 22.5333 2.9002 23.0666 3.3002 23.4333C3.93353 24.0333 4.86686 24 5.0002 24C5.2002 24 8.03353 24 10.5002 24C11.7669 24 12.9669 24 13.6335 24C14.3335 24 14.9002 23.7666 15.3002 23.3666C15.8669 22.7666 15.8669 21.9666 15.8669 21.8333V21.6666C15.8669 21.6666 15.8669 20.2 15.8669 18.0666L16.9002 18.4667C16.8335 18.8666 16.8335 19.2666 16.9669 19.6666C17.1669 20.2333 17.5669 20.6666 18.1335 20.9333C18.4335 21.0666 18.7669 21.1333 19.1002 21.1333C19.9335 21.1333 20.7335 20.6666 21.1335 19.8666C21.3335 19.3 21.3669 18.7 21.1669 18.1333ZM13.5335 15.4667C13.7335 15.7 13.8335 16.0333 13.8002 16.3333C13.7669 16.6666 13.6335 16.9333 13.3669 17.1333C13.1335 17.3333 12.8002 17.4333 12.5002 17.4C12.1669 17.3666 11.9002 17.2333 11.7002 16.9667C11.5002 16.7333 11.4002 16.4 11.4335 16.1C11.4669 15.7666 11.6002 15.5 11.8669 15.3C12.1002 15.1 12.3669 15.0333 12.6335 15.0333C12.6669 15.0333 12.7002 15.0333 12.7335 15.0333C13.0335 15.0666 13.3002 15.2333 13.5335 15.4667ZM18.0002 12.0333C18.1002 11.9666 18.2002 11.9333 18.3002 11.9333H18.3335C18.4669 11.9333 18.5669 12 18.6335 12.1C18.7002 12.2 18.7669 12.3 18.7335 12.4333C18.7002 12.7 18.5002 12.8666 18.2335 12.8666C17.9669 12.8333 17.8002 12.6333 17.8002 12.3666C17.8335 12.2333 17.9002 12.1333 18.0002 12.0333ZM15.2669 21.6666V21.8333C15.2669 21.8333 15.3002 22.5 14.8669 22.9333C14.6002 23.2333 14.1669 23.3666 13.6335 23.4C11.6335 23.4333 5.1002 23.4 5.03353 23.4H5.0002C5.0002 23.4 4.2002 23.4666 3.73353 23C3.46686 22.7333 3.33353 22.3333 3.33353 21.8333V2.16665C3.33353 2.16665 3.3002 1.49998 3.73353 1.06665C4.0002 0.76665 4.43353 0.599983 4.96686 0.599983C6.96686 0.56665 13.5002 0.599983 13.5669 0.599983H13.6002C13.6002 0.599983 14.4002 0.533317 14.8669 0.999983C15.1335 1.26665 15.2669 1.66665 15.2669 2.16665C15.2335 3.29998 15.2335 9.13332 15.2669 13.9L13.6669 14.8333C13.4002 14.6333 13.1002 14.5 12.7669 14.5C12.3002 14.4666 11.8335 14.6 11.4669 14.9C11.1669 15.1333 10.9669 15.4666 10.9002 15.8333C10.8669 15.8333 10.8669 15.8333 10.8335 15.8333H8.4002V9.83332H10.2669V12.0666C9.86686 12.1666 9.53353 12.5333 9.5002 13C9.46686 13.2666 9.56686 13.5333 9.73353 13.7666C9.9002 13.9666 10.1669 14.1 10.4335 14.1333C10.4669 14.1333 10.5002 14.1333 10.5335 14.1333C11.0669 14.1333 11.5335 13.7333 11.5669 13.1666C11.6002 12.9 11.5002 12.6333 11.3335 12.4C11.2002 12.2333 11.0335 12.1333 10.8335 12.0666V9.53332C10.8335 9.36665 10.7002 9.23332 10.5335 9.23332H8.06686C7.9002 9.23332 7.76686 9.36665 7.76686 9.53332V16.1C7.76686 16.2666 7.9002 16.4 8.06686 16.4H10.8002C10.8335 16.7666 10.9669 17.1 11.2002 17.4C11.5002 17.7666 11.9335 17.9666 12.4002 18.0333C12.4669 18.0333 12.5002 18.0333 12.5335 18.0333C12.9669 18.0333 13.3669 17.9 13.6669 17.6C13.7669 17.5333 13.8335 17.4666 13.9002 17.3666L15.1669 17.8333C15.2669 20.1 15.2669 21.6666 15.2669 21.6666ZM10.5335 12.6333H10.5669C10.7002 12.6333 10.8002 12.7 10.8669 12.8C10.9335 12.9 11.0002 13 10.9669 13.1333C10.9335 13.4 10.7335 13.5666 10.4669 13.5666C10.3335 13.5666 10.2335 13.5 10.1669 13.4C10.1002 13.3 10.0335 13.2 10.0669 13.0666C10.1002 12.8 10.3002 12.6333 10.5335 12.6333ZM20.5335 19.6C20.1335 20.4333 19.1669 20.7666 18.3335 20.4C17.5002 20 17.1669 19.0333 17.5335 18.2C17.7335 17.8 18.0669 17.5 18.4669 17.3333C18.6335 17.2666 18.8335 17.2333 19.0335 17.2333C19.2669 17.2333 19.5002 17.3 19.7335 17.4C20.5669 17.8 20.9335 18.7666 20.5335 19.6Z" fill="#796B5F"/>
<path d="M11.9006 2.36666H12.2673C12.4339 2.36666 12.5673 2.23333 12.5673 2.06666C12.5673 1.9 12.4339 1.76666 12.2673 1.76666H11.9006C11.7339 1.76666 11.6006 1.9 11.6006 2.06666C11.6006 2.23333 11.7339 2.36666 11.9006 2.36666Z" fill="#796B5F"/>
<path d="M11.1 2.06666C11.1 1.9 10.9667 1.76666 10.8 1.76666H7.8C7.63333 1.76666 7.5 1.9 7.5 2.06666C7.5 2.23333 7.63333 2.36666 7.8 2.36666H10.8C10.9667 2.36666 11.1 2.23333 11.1 2.06666Z" fill="#796B5F"/>
<path d="M6.50013 8.73332C6.7668 8.73332 7.00013 8.49998 7.00013 8.23332V6.19998C7.00013 5.93332 6.7668 5.69998 6.50013 5.69998H4.4668C4.20013 5.69998 3.9668 5.93332 3.9668 6.19998V8.23332C3.9668 8.49998 4.20013 8.73332 4.4668 8.73332C4.50013 8.73332 6.50013 8.73332 6.50013 8.73332ZM4.5668 6.26665H6.43346V8.13332H4.5668V6.26665Z" fill="#796B5F"/>
<path d="M8.29981 8.73332H10.3331C10.5998 8.73332 10.8331 8.49998 10.8331 8.23332V6.19998C10.8331 5.93332 10.5998 5.69998 10.3331 5.69998H8.29981C8.03314 5.69998 7.7998 5.93332 7.7998 6.19998V8.23332C7.7998 8.49998 8.03314 8.73332 8.29981 8.73332ZM8.36647 6.26665H10.2331V8.13332H8.36647V6.26665Z" fill="#796B5F"/>
<path d="M12.0334 12.3H14.0668C14.3334 12.3 14.5668 12.0667 14.5668 11.8V9.76666C14.5668 9.5 14.3334 9.26666 14.0668 9.26666H12.0334C11.7668 9.26666 11.5334 9.5 11.5334 9.76666V11.8C11.5001 12.0667 11.7334 12.3 12.0334 12.3ZM12.1001 9.83333H13.9668V11.7H12.1001V9.83333Z" fill="#796B5F"/>
<path d="M6.70033 18.2H4.66699C4.40033 18.2 4.16699 18.4333 4.16699 18.7V20.7333C4.16699 21 4.40033 21.2333 4.66699 21.2333H6.70033C6.96699 21.2333 7.20033 21 7.20033 20.7333V18.7C7.20033 18.4333 6.96699 18.2 6.70033 18.2ZM6.63366 20.6333H4.76699V18.7666H6.63366V20.6333Z" fill="#796B5F"/>
</g>
<defs>
<clipPath id="clip0_1034_2288">
<rect width="24" height="24" fill="white"/>
</clipPath>
</defs>
</svg>
