<svg width="16" height="16" viewBox="0 0 16 16" fill="none" xmlns="http://www.w3.org/2000/svg">
<path d="M11.3678 15.2V11.8525C11.3678 11.6996 11.4918 11.5757 11.6446 11.5757H15.2L11.3678 15.2ZM15.2 10.9664H11.0198C10.867 10.9664 10.743 11.0904 10.743 11.2434V15.2H1.07696C0.924003 15.2 0.800003 15.076 0.800003 14.9232V1.07701C0.800003 0.924047 0.924003 0.800049 1.07696 0.800049H14.9232C15.0762 0.800049 15.2 0.924047 15.2 1.07701V10.9664ZM3.01536 3.56917V4.40005H12.9848V3.56917H3.01536ZM3.01536 6.17589V7.00661H12.9848V6.17589H3.01536ZM8.90112 12.22V11.3892H3.01536V12.22H8.90112ZM3.01536 9.61333H12.9848V8.78261H3.01536V9.61333Z" fill="#68D0C2"/>
</svg>
