<svg width="24" height="24" viewBox="0 0 24 24" fill="none" xmlns="http://www.w3.org/2000/svg">
<g clip-path="url(#clip0_2004_2172)">
<path d="M6.75 18L17.25 18C20.55 18 23.25 15.3 23.25 12C23.25 8.7 20.55 6 17.25 6L6.75 6C3.45 6 0.750001 8.7 0.750001 12C0.75 15.3 3.45 18 6.75 18ZM17.25 8.25C19.35 8.25 21 9.9 21 12C21 14.1 19.35 15.75 17.25 15.75C15.15 15.75 13.5 14.1 13.5 12C13.5 9.9 15.15 8.25 17.25 8.25Z" fill="#68D0C2"/>
</g>
<defs>
<clipPath id="clip0_2004_2172">
<rect width="24" height="24" fill="white" transform="translate(24 24) rotate(-180)"/>
</clipPath>
</defs>
</svg>
