<svg width="18" height="18" viewBox="0 0 18 18" fill="none" xmlns="http://www.w3.org/2000/svg">
<path d="M8.74999 15.5C12.4734 15.5 15.5 12.4734 15.5 8.74999C15.5 5.02659 12.4734 2 8.74999 2C5.02659 2 2 5.02659 2 8.74999C2 12.4734 5.02659 15.5 8.74999 15.5ZM3.52418 11.4391L6.26774 11.4173C6.57259 12.5169 7.08428 13.5838 7.78105 14.5419C5.91935 14.2371 4.36248 13.0504 3.52418 11.4391ZM6.96452 6.89919H10.3831C10.6335 8.09677 10.6335 9.327 10.4048 10.5246L6.96449 10.5464C6.7141 9.3379 6.7141 8.09677 6.96452 6.89919ZM8.67379 14.2915C7.98791 13.4096 7.4871 12.4407 7.18224 11.4173L10.1762 11.3956C9.86048 12.4189 9.35966 13.3988 8.67379 14.2915ZM9.54475 14.5746C10.2633 13.5947 10.775 12.5169 11.0798 11.3847L14.0085 11.3629C13.1593 13.0722 11.5044 14.3024 9.54475 14.5746ZM14.629 8.74999C14.629 9.35966 14.531 9.94757 14.3677 10.4919L11.2867 10.5137C11.5044 9.3161 11.4935 8.09675 11.2649 6.89916H14.3242C14.5201 7.4762 14.629 8.10764 14.629 8.74999ZM13.954 6.02822H11.0581C10.7423 4.9395 10.2415 3.88346 9.54475 2.9254C11.4718 3.18669 13.0939 4.37338 13.954 6.02822ZM10.1544 6.02822H7.19314C7.50886 5.02659 7.99878 4.07943 8.67379 3.20846C9.34877 4.07943 9.83871 5.02659 10.1544 6.02822ZM7.78102 2.95806C7.09515 3.90523 6.59433 4.93952 6.28948 6.02822H3.54592C4.38425 4.42781 5.93023 3.26289 7.78102 2.95806ZM6.08265 6.89919C5.85403 8.10764 5.85403 9.3379 6.07175 10.5464L3.1649 10.5681C2.96893 9.99111 2.87094 9.38143 2.87094 8.74999C2.87094 8.10764 2.9798 7.4762 3.17579 6.89919H6.08265Z" fill="#796B5F"/>
</svg>
