<svg width="25" height="24" viewBox="0 0 25 24" fill="none" xmlns="http://www.w3.org/2000/svg">
<path d="M16.4886 14H15.6989L15.4191 13.73C16.3986 12.59 16.9884 11.11 16.9884 9.5C16.9884 5.91 14.0797 3 10.4913 3C6.90285 3 3.99414 5.91 3.99414 9.5C3.99414 13.09 6.90285 16 10.4913 16C12.1005 16 13.5799 15.41 14.7194 14.43L14.9893 14.71V15.5L19.987 20.49L21.4764 19L16.4886 14ZM10.4913 14C8.00236 14 5.99325 11.99 5.99325 9.5C5.99325 7.01 8.00236 5 10.4913 5C12.9801 5 14.9893 7.01 14.9893 9.5C14.9893 11.99 12.9801 14 10.4913 14Z" fill="white"/>
</svg>
