<svg width="18" height="18" viewBox="0 0 18 18" fill="none" xmlns="http://www.w3.org/2000/svg">
<path d="M9.63633 14.182C9.20742 14.1996 8.85586 14.0484 8.63086 13.6758C8.40938 13.3066 8.48672 12.9375 8.69414 12.5859C8.76445 12.4699 8.85938 12.368 8.94375 12.259C9.41836 11.6367 9.98789 11.1199 10.6594 10.7191C10.8352 10.6137 11.0215 10.5223 11.2008 10.4273C11.1902 10.4098 11.1902 10.3957 11.1832 10.3887C11.0988 10.3113 11.0145 10.2305 10.9301 10.1531C10.2832 9.55898 9.58711 9.38671 8.76445 9.81562C8.18086 10.1215 7.54102 10.2656 6.88008 10.2832C6.11719 10.3008 5.4 10.1109 4.725 9.77343C4.02187 9.42538 3.39961 9.54843 2.81602 10.023C2.15859 10.5609 1.62773 11.2043 1.21641 11.9496C0.928125 12.4734 0.710156 13.0289 0.5625 13.609C0.5625 13.7531 0.5625 13.8937 0.5625 14.0379C0.675 14.407 0.945703 14.6074 1.30078 14.7164C1.40625 14.748 1.51172 14.7797 1.6207 14.7937C2.29219 14.8816 2.93906 15.0574 3.57539 15.293C4.38047 15.5918 5.21016 15.7887 6.07148 15.8309C7.21758 15.8871 8.35313 15.8379 9.45703 15.4828C9.82969 15.3633 10.1988 15.2332 10.5574 15.1101C10.3254 14.7832 10.1039 14.4738 9.87891 14.1539C9.80859 14.1644 9.7207 14.1785 9.63633 14.182Z" fill="#68D0C2"/>
<path d="M17.3112 12.8461C16.8647 12.2168 16.3444 11.6648 15.6976 11.2395C14.4108 10.3957 13.0397 10.1637 11.5808 10.7191C10.4698 11.141 9.64716 11.925 8.99326 12.8988C8.94404 12.9727 8.91591 13.0711 8.90536 13.159C8.88427 13.4227 9.02841 13.5949 9.24638 13.7109C9.49247 13.841 9.77372 13.8094 9.9706 13.6406C10.0093 13.609 10.0479 13.5738 10.0901 13.5352C10.5929 14.9555 11.8233 15.7711 13.0995 15.7676C14.6534 15.7676 15.6765 14.9625 16.2425 13.5809C16.3972 13.6477 16.5483 13.7496 16.7136 13.7707C17.0511 13.8199 17.2796 13.6301 17.4413 13.3488C17.4413 13.2504 17.4413 13.152 17.4413 13.0535C17.3956 12.9832 17.3569 12.9094 17.3112 12.8461ZM15.5218 12.825C15.3811 14.0063 14.3933 14.8887 13.1909 14.9133C12.0483 14.9379 11.0358 14.0801 10.8354 12.9445C10.7968 12.7266 10.8495 12.593 11.0218 12.477C11.1976 12.3574 11.3663 12.2344 11.5667 12.0902C11.4331 12.9094 11.6722 13.5387 12.3647 13.9359C12.9413 14.2664 13.5425 14.2418 14.0909 13.8656C14.6886 13.4578 14.896 12.8672 14.7729 12.0973C15.0366 12.3012 15.2686 12.4734 15.4936 12.6598C15.5253 12.6879 15.5288 12.7723 15.5218 12.825Z" fill="#68D0C2"/>
<path d="M8.69009 8.19141C9.88892 6.84492 9.92408 4.52812 8.77095 3.14297C8.34205 2.62968 7.8147 2.27109 7.1397 2.17265C6.22916 2.03906 5.49439 2.38711 4.89673 3.04804C4.2815 3.73359 4.01431 4.56328 3.97564 5.42461C3.91939 6.32461 4.21119 7.29492 4.72095 7.97696C5.76861 9.37618 7.55103 9.4711 8.69009 8.19141Z" fill="#68D0C2"/>
</svg>
