<svg width="24" height="24" viewBox="0 0 24 24" fill="none" xmlns="http://www.w3.org/2000/svg">
<g clip-path="url(#clip0_1034_2302)">
<path d="M19.6779 24.1117H4.3446C3.17793 24.1117 1.2446 23.6783 1.2446 20.645V10.9783H0.37793C0.244596 10.9783 0.111263 10.9117 0.011263 10.845C-0.088737 10.745 -0.12207 10.6117 -0.12207 10.4783C-0.12207 10.4783 -0.12207 9.24501 -0.12207 7.41167C-0.12207 6.41167 0.111263 5.71167 0.611263 5.27834C1.1446 4.81168 1.8446 4.74501 2.37793 4.74501H5.1446C4.87793 3.94501 4.7446 2.71167 5.67793 1.67834C6.21126 1.11167 6.81126 0.811675 7.4446 0.811675C7.4446 0.811675 7.4446 0.811675 7.47793 0.811675C8.5446 0.811675 9.27793 1.64501 9.31126 1.67834L11.9779 4.31167L15.7113 0.778342C15.8446 0.645008 16.5779 -0.121658 17.5779 -0.121658C18.2113 -0.121658 18.8113 0.145008 19.3113 0.711675C19.9113 1.34501 20.1779 2.01167 20.1446 2.64501C20.1113 3.47834 19.5779 3.97834 19.5113 4.01167L18.8113 4.74501H21.2113C24.0779 4.74501 24.0779 6.41167 24.0779 7.21167V10.445C24.0779 10.7117 23.8446 10.945 23.5779 10.945H22.5446V20.7783C22.5446 21.845 22.2446 22.6783 21.6446 23.2783C20.8113 24.1117 19.7446 24.1117 19.6779 24.1117ZM2.2446 10.9783V20.645C2.2446 22.3117 2.91126 23.1117 4.3446 23.1117H19.6779C19.8779 23.1117 21.5446 23.045 21.5446 20.7783V10.9783H2.2446ZM2.37793 5.74501C1.81126 5.74501 1.47793 5.84501 1.27793 6.01167C1.01126 6.24501 0.87793 6.71167 0.87793 7.37834C0.87793 8.51167 0.87793 9.41167 0.87793 9.94501H8.91126V5.74501H2.37793ZM9.91126 5.74501V9.94501H13.6446V5.74501H9.91126ZM14.6446 5.74501V9.94501H22.0446H23.0779V7.21167C23.0779 6.41167 23.0779 5.74501 21.2113 5.74501H14.6446ZM12.9779 4.74501H17.4113L18.8446 3.27834C18.9779 3.14501 19.6113 2.44501 18.5779 1.37834C18.2446 1.04501 17.9446 0.878342 17.5779 0.878342C16.9446 0.878342 16.4446 1.44501 16.4446 1.44501L16.4113 1.47834L12.9779 4.74501ZM6.21126 4.74501H10.9779L8.57793 2.37834C8.5446 2.34501 8.0446 1.81167 7.4446 1.81167C7.07793 1.81167 6.7446 1.97834 6.41126 2.34501C5.67793 3.17834 6.01126 4.27834 6.21126 4.74501ZM11.8446 22.1117C8.91126 22.1117 6.5446 19.745 6.5446 16.8117C6.5446 13.8783 8.91126 11.5117 11.8446 11.5117C14.7779 11.5117 17.1446 13.8783 17.1446 16.8117C17.1446 19.745 14.7779 22.1117 11.8446 22.1117ZM11.8446 12.5117C9.47793 12.5117 7.5446 14.445 7.5446 16.8117C7.5446 19.1783 9.47793 21.1117 11.8446 21.1117C14.2113 21.1117 16.1446 19.1783 16.1446 16.8117C16.1446 14.445 14.2113 12.5117 11.8446 12.5117ZM11.3113 19.045C11.1779 19.045 11.0446 18.9783 10.9446 18.9117L8.8446 16.7783C8.6446 16.5783 8.6446 16.2783 8.8446 16.0783C9.0446 15.8783 9.3446 15.8783 9.5446 16.0783L11.2779 17.845L14.4446 14.6783C14.6446 14.4783 14.9446 14.4783 15.1446 14.6783C15.3446 14.8783 15.3446 15.1783 15.1446 15.3783L11.6446 18.9117C11.5446 18.9783 11.4446 19.045 11.3113 19.045Z" fill="#796B5F"/>
</g>
<defs>
<clipPath id="clip0_1034_2302">
<rect width="23.9667" height="24" fill="white"/>
</clipPath>
</defs>
</svg>
