<?xml version="1.0" encoding="utf-8"?>
<!-- Generator: Adobe Illustrator 26.0.2, SVG Export Plug-In . SVG Version: 6.00 Build 0)  -->
<svg version="1.1" id="Layer_1" xmlns="http://www.w3.org/2000/svg" xmlns:xlink="http://www.w3.org/1999/xlink" x="0px" y="0px"
	 viewBox="0 0 24 24" style="enable-background:new 0 0 24 24;" xml:space="preserve">
<style type="text/css">
	.st0{fill:#FFFFFF;}
</style>
<g>
	<path class="st0" d="M19.6,24H4.4c-1.2,0-3.1-0.4-3.1-3.4V11H0.5c-0.1,0-0.3-0.1-0.4-0.1C0,10.8,0,10.6,0,10.5c0,0,0-1.2,0-3
		c0-1,0.2-1.7,0.7-2.1C1.3,4.9,2,4.8,2.5,4.8h2.7C5,4,4.8,2.8,5.8,1.8c0.5-0.6,1.1-0.9,1.7-0.9l0,0c1.1,0,1.8,0.8,1.8,0.9L12,4.4
		l3.7-3.5C15.8,0.8,16.6,0,17.5,0c0.6,0,1.2,0.3,1.7,0.8c0.6,0.6,0.9,1.3,0.8,1.9c0,0.8-0.6,1.3-0.6,1.4l-0.7,0.7h2.4
		C24,4.8,24,6.5,24,7.3v3.2c0,0.3-0.2,0.5-0.5,0.5h-1v9.7c0,1.1-0.3,1.9-0.9,2.5C20.7,24,19.7,24,19.6,24z M2.4,11v9.6
		c0,1.6,0.6,2.4,2,2.4h15.2c0.2,0,1.8-0.1,1.8-2.3V11H2.4z M2.5,5.8c-0.6,0-0.9,0.1-1.1,0.3C1.1,6.3,1,6.8,1,7.4c0,1.1,0,2,0,2.5h8
		V5.8H2.5z M10,5.8V10h3.7V5.8H10z M14.6,5.8V10H22h1V7.3c0-0.8,0-1.5-1.8-1.5H14.6z M13,4.8h4.4l1.4-1.5c0.1-0.1,0.8-0.8-0.3-1.9
		c-0.3-0.3-0.6-0.5-1-0.5c-0.6,0-1.1,0.6-1.1,0.6l0,0L13,4.8z M6.3,4.8H11L8.6,2.5c0,0-0.5-0.6-1.1-0.6c-0.4,0-0.7,0.2-1,0.5
		C5.8,3.3,6.1,4.4,6.3,4.8z M11.9,22c-2.9,0-5.2-2.3-5.2-5.2s2.3-5.2,5.2-5.2s5.2,2.3,5.2,5.2C17.1,19.7,14.8,22,11.9,22z
		 M11.9,12.5c-2.3,0-4.3,1.9-4.3,4.3c0,2.3,1.9,4.3,4.3,4.3c2.3,0,4.3-1.9,4.3-4.3C16.1,14.4,14.2,12.5,11.9,12.5z M11.3,19
		c-0.1,0-0.3-0.1-0.4-0.1l-2.1-2.1c-0.2-0.2-0.2-0.5,0-0.7c0.2-0.2,0.5-0.2,0.7,0l1.7,1.7l3.1-3.1c0.2-0.2,0.5-0.2,0.7,0
		s0.2,0.5,0,0.7l-3.5,3.5C11.6,18.9,11.5,19,11.3,19z"/>
</g>
</svg>
