<svg width="18" height="18" viewBox="0 0 18 18" fill="none" xmlns="http://www.w3.org/2000/svg">
<path d="M7.12799 3.97803H2.10599C1.92599 3.97803 1.79999 4.12202 1.79999 4.28402V9.28803C1.79999 9.37803 1.83599 9.45002 1.88999 9.50402C1.94399 9.55802 2.03399 9.59402 2.10599 9.59402H7.10999C7.19999 9.59402 7.27199 9.55802 7.32599 9.50402C7.37999 9.45002 7.41599 9.36003 7.41599 9.28803V4.28402C7.41599 4.19402 7.37999 4.12203 7.32599 4.06803C7.27199 4.01403 7.19999 3.97803 7.12799 3.97803ZM6.80399 8.98203H2.42999V4.60803H6.80399V8.98203Z" fill="#68D0C2"/>
<path d="M7.12799 10.2419H2.10599C1.92599 10.2419 1.79999 10.3859 1.79999 10.5479V15.5519C1.79999 15.6419 1.83599 15.7139 1.88999 15.7679C1.94399 15.8219 2.03399 15.8579 2.10599 15.8579H7.10999C7.19999 15.8579 7.27199 15.8219 7.32599 15.7679C7.37999 15.7139 7.41599 15.6239 7.41599 15.5519V10.5479C7.41599 10.4579 7.37999 10.3859 7.32599 10.3319C7.27199 10.2779 7.19999 10.2419 7.12799 10.2419ZM6.80399 15.2459H2.42999V10.8719H6.80399V15.2459Z" fill="#68D0C2"/>
<path d="M13.374 10.2419H8.37C8.19 10.2419 8.064 10.3859 8.064 10.5479V15.5519C8.064 15.6419 8.1 15.7139 8.154 15.7679C8.208 15.8219 8.298 15.8579 8.37 15.8579H13.374C13.464 15.8579 13.536 15.8219 13.59 15.7679C13.644 15.7139 13.68 15.6239 13.68 15.5519V10.5479C13.68 10.4579 13.644 10.3859 13.59 10.3319C13.536 10.2779 13.464 10.2419 13.374 10.2419ZM13.068 15.2459H8.694V10.8719H13.068V15.2459Z" fill="#68D0C2"/>
<path d="M16.038 4.68001L11.7 2.16001C11.628 2.12401 11.538 2.106 11.466 2.124C11.394 2.142 11.322 2.19601 11.268 2.26801L8.76599 6.60601C8.72999 6.67801 8.71199 6.768 8.72999 6.84C8.74799 6.912 8.80199 6.98401 8.87399 7.03801L13.212 9.54C13.284 9.576 13.374 9.59401 13.446 9.576C13.518 9.55801 13.59 9.504 13.644 9.432L16.146 5.094C16.182 5.022 16.2 4.93201 16.182 4.86001C16.164 4.78801 16.11 4.71601 16.038 4.68001ZM13.266 8.85601L9.46799 6.66L11.664 2.86201L15.462 5.05801L13.266 8.85601Z" fill="#68D0C2"/>
</svg>
