<?xml version="1.0" encoding="UTF-8"?>
<!-- Generator: Adobe Illustrator 16.0.0, SVG Export Plug-In . SVG Version: 6.00 Build 0)  -->
<!DOCTYPE svg PUBLIC "-//W3C//DTD SVG 1.1//EN" "http://www.w3.org/Graphics/SVG/1.1/DTD/svg11.dtd">
<svg version="1.1" id="Layer_1" xmlns="http://www.w3.org/2000/svg" xmlns:xlink="http://www.w3.org/1999/xlink" x="0px" y="0px" width="960px" height="182.959px" viewBox="0 0 960 182.959" enable-background="new 0 0 960 182.959" xml:space="preserve">
<g>
	<path fill="#8DBDA2" d="M893.299,72.571c0.943,23.04,16.521,34.026,31,34.026c11.814,0,23.707-6.554,27.717-23.516h6.253   c-3.583,15.846-14.71,28.4-33.653,28.4c-21.085,0-37.617-16.636-37.617-42.117l0.064-0.585c0-25.485,16.374-42.061,37.462-42.061   c23.445,0,34.938,19.232,34.938,40.134c0,0.76,0,1.832-0.157,3.815h-66.104L893.299,72.571z M893.202,65.634h60.123   c-0.944-24.873-15.107-34.031-29.111-34.031C909.732,31.603,894.148,42.589,893.202,65.634z"/>
	<path fill="#2B2B2C" d="M345.112,111.56h-21.72V60.954c0-11.335,0-25.813,0.316-37.145c-2.68,11.332-6.613,25.81-10.071,36.983   l-15.266,50.768h-23.608l-15.58-50.922c-3.305-11.019-7.239-25.497-9.754-36.669c0.31,11.332,0.31,25.651,0.31,36.986v50.605   h-21.713V2.565h34.307l24.546,88.603l24.553-88.603h33.681V111.56z"/>
	<path fill="#2B2B2C" d="M417.328,19.563v91.996h-21.714V19.563h-36.828V2.565h95.367v16.998H417.328z"/>
	<path fill="#2B2B2C" d="M543.375,34.415h-22.191c-1.257-10.757-7.396-17.519-18.728-17.519c-8.656,0-15.261,3.996-15.261,12.6   c0,8.914,5.82,13.372,23.133,17.367c23.922,5.377,34.619,16.135,34.619,33.192c0,19.979-18.726,31.352-40.131,31.352   c-25.966,0-42.962-11.223-45.01-33.501h22.192c2.356,11.677,11.482,17.675,22.504,17.675c9.913,0,17.786-5.23,17.786-13.373   c0-8.915-5.672-14.137-21.722-17.83c-22.188-5.221-36.193-12.751-36.193-32.269s18.095-31.042,38.871-31.042   C529.21,1.068,541.015,15.515,543.375,34.415z"/>
	<path fill="#8DBDA2" d="M726.733,65.44v46.084h-5.982V66.85c0-5.483-0.155-9.091-0.629-13.323   c-1.416-12.854-8.498-21.63-23.448-21.63c-14.634,0-28.015,10.187-28.015,33.857v45.771h-5.977V28.918h5.977v17.71l3.776-8.619   c6.297-7.84,15.109-11.29,24.869-11.29c17.152,0,27.226,9.405,28.799,25.081C726.578,56.036,726.733,58.699,726.733,65.44z"/>
	<path fill="#8DBDA2" d="M754.104,91.719c0,4.721,0,6.589,0.162,8.949c0.317,5.194,2.36,6.452,9.126,5.666v4.718   c-1.889,0.473-3.937,0.473-5.821,0.473c-5.194,0-8.971-2.045-9.288-9.285c-0.159-3.146-0.159-4.855-0.159-10.362V2.565h5.98V91.719   z"/>
	<path fill="#8DBDA2" d="M786.365,11.614c0,2.519-2.047,4.563-4.566,4.563c-2.515,0-4.566-2.044-4.566-4.563   c0-2.52,2.052-4.567,4.566-4.567C784.318,7.047,786.365,9.095,786.365,11.614z M778.805,111.56V28.925h5.982v82.634H778.805z"/>
	<path fill="#8DBDA2" d="M871.657,65.595v45.965h-5.983V67.011c0-5.511-0.155-9.129-0.628-13.378   c-1.416-12.907-8.497-21.716-23.448-21.716c-14.634,0-28.013,10.225-28.013,33.988v45.655h-5.979V28.925h5.979v17.784l3.777-8.654   c6.297-7.872,15.105-11.335,24.866-11.335c17.156,0,27.23,9.443,28.801,25.183C871.502,56.152,871.657,58.826,871.657,65.595z"/>
	<g>
		<linearGradient id="SVGID_1_" gradientUnits="userSpaceOnUse" x1="24.7246" y1="45.8574" x2="166.3857" y2="45.8574">
			<stop offset="0" style="stop-color:#5B8B70"/>
			<stop offset="0.2419" style="stop-color:#8DBDA2"/>
			<stop offset="0.5699" style="stop-color:#BFEFD4"/>
			<stop offset="0.9355" style="stop-color:#8DBDA2"/>
			<stop offset="1" style="stop-color:#5B8B70"/>
		</linearGradient>
		<path fill="url(#SVGID_1_)" d="M24.725,44.785c0,0,95.356-1.149,140.563,43.456l1.017-16.218c0,0,3.242-35.479-31.221-51.292    C100.617,4.916,59.057,3.493,59.057,3.493S46.284,2.076,32.089,24.581L24.725,44.785z"/>
		<linearGradient id="SVGID_2_" gradientUnits="userSpaceOnUse" x1="37.7729" y1="171.9707" x2="37.7729" y2="15.2231">
			<stop offset="0" style="stop-color:#5B8B70"/>
			<stop offset="0.129" style="stop-color:#8DBDA2"/>
			<stop offset="0.3979" style="stop-color:#BFEFD4"/>
			<stop offset="0.7258" style="stop-color:#8DBDA2"/>
			<stop offset="1" style="stop-color:#5B8B70"/>
		</linearGradient>
		<path fill="url(#SVGID_2_)" d="M74.463,171.971c0,0-37.621-126.475-35.459-156.748L6.616,55.599c0,0-8.988,14.802-4.054,34.506    c6.512,26.011,10.349,58.772,50.137,73.684L74.463,171.971z"/>
		<linearGradient id="SVGID_3_" gradientUnits="userSpaceOnUse" x1="45.8926" y1="171.8115" x2="185.8181" y2="91.0255">
			<stop offset="0" style="stop-color:#5B8B70"/>
			<stop offset="0.2849" style="stop-color:#8DBDA2"/>
			<stop offset="0.4516" style="stop-color:#A9D9BD"/>
			<stop offset="0.5968" style="stop-color:#8DBDA2"/>
			<stop offset="1" style="stop-color:#5B8B70"/>
		</linearGradient>
		<path fill="url(#SVGID_3_)" d="M163.727,52.762l11.698,45.817c0,0,6.084,21.69-4.054,35.277c0,0-28.179,37.1-53.523,46.626    c0,0-19.003,4.544-40.816-2.702c-8.347-2.77-40.444-22.084-40.444-22.084s22.195,5.732,55.988-18.461    C92.576,137.235,165.795,95.853,163.727,52.762z"/>
	</g>
	<path fill="#8DBDA2" d="M647.457,69.735c0,25.497-14.953,43.593-39.502,43.593c-24.553,0-39.499-18.097-39.499-43.593   c0-25.651,14.946-43.749,39.499-43.749C632.504,25.986,647.457,44.083,647.457,69.735z M641.006,69.735   c0-25.81-15.427-38.713-33.051-38.713c-17.625,0-32.89,12.903-32.89,38.713c0,25.652,15.265,38.559,32.89,38.559   C625.579,108.294,641.006,95.387,641.006,69.735z"/>
	<g>
		<path fill="#646464" d="M252.945,165.24c0,9.437-5.885,14.281-11.727,15.018c-1.515,0.173-2.293,0.173-3.809,0.173h-8.74v-29.858    h8.87c1.558,0,2.25,0,3.592,0.13C247.189,151.393,252.945,155.721,252.945,165.24z M250.003,165.24    c0-7.66-4.198-11.596-9.131-12.29c-0.952-0.126-1.903-0.126-3.462-0.126h-6.057v25.354h5.929c1.471,0,2.508,0,3.677-0.169    C245.893,177.27,250.003,172.985,250.003,165.24z"/>
		<path fill="#646464" d="M262.268,180.431v-29.858h2.683v29.858H262.268z"/>
		<path fill="#646464" d="M294.341,158.578h-2.813c-0.518-4.07-3.115-6.448-7.053-6.448c-3.419,0-6.578,1.772-6.578,5.324    c0,3.635,2.121,4.976,7.227,6.272c6.404,1.645,9.606,4.068,9.606,9.002c0,4.933-4.327,8.308-10.04,8.308    c-6.057,0-10.428-3.071-11.078-8.825h2.857c0.734,4.284,4.023,6.662,8.309,6.662c3.938,0,7.097-2.251,7.097-5.711    c0-3.855-2.251-5.497-7.833-6.882c-5.669-1.469-9.044-3.464-9.044-8.263c0-4.849,4.415-8.052,9.693-8.052    C290.663,149.966,293.779,153.733,294.341,158.578z"/>
		<path fill="#646464" d="M314.954,152.781v27.649h-2.684v-27.649h-10.947v-2.209h24.579v2.209H314.954z"/>
		<path fill="#646464" d="M354.218,180.431h-2.986c-0.736-1.906-1.256-3.767-1.688-7.66c-0.389-3.161-1.688-5.627-4.89-5.797    c-0.779-0.042-1.644-0.042-2.336-0.042h-6.101v13.499h-2.683v-29.858h8.784c1.515,0,2.683,0,4.068,0.173    c4.414,0.563,7.355,2.988,7.355,7.744c0,3.94-2.509,6.322-5.625,7.097c2.553,1.043,3.809,3.768,4.113,6.886    C352.66,176.579,353.179,178.742,354.218,180.431z M342.36,164.677c1.298,0,2.035,0,3.031-0.084    c3.289-0.262,5.453-2.383,5.453-5.885c0-3.505-1.862-5.236-5.108-5.716c-1.038-0.126-1.991-0.168-3.417-0.168h-6.101v11.853    H342.36z"/>
		<path fill="#646464" d="M362.933,180.431v-29.858h2.683v29.858H362.933z"/>
		<path fill="#646464" d="M397.039,171.949c0,5.195-3.807,7.833-7.919,8.309c-1.341,0.173-2.25,0.173-3.504,0.173h-9.088v-29.858    h8.309c1.298,0,2.206,0,3.678,0.13c4.63,0.519,7.441,2.984,7.441,7.182c0,3.636-2.076,5.8-5.322,6.709    C394.833,165.502,397.039,167.883,397.039,171.949z M379.211,163.769h6.273c0.736,0,1.471-0.042,2.38-0.128    c3.073-0.346,5.194-2.036,5.194-5.454c0-3.633-2.511-5.06-5.497-5.32c-0.865-0.042-1.688-0.042-2.553-0.042h-5.798V163.769z     M394.183,172.211c0-3.553-1.904-5.758-5.884-6.104c-0.995-0.085-1.646-0.13-2.337-0.13h-6.75v12.201h7.009    c0.693,0,1.471,0,2.033-0.043C391.414,177.877,394.183,176.016,394.183,172.211z"/>
		<path fill="#646464" d="M427.347,169.743c0,0.864-0.044,1.731-0.131,2.77c-0.345,4.846-3.678,8.523-10.472,8.523    c-6.837,0-10.125-3.678-10.516-8.523c-0.086-1.038-0.086-1.905-0.086-2.77v-19.171h2.683v19.037c0,0.955,0,1.819,0.087,2.644    c0.347,3.763,2.813,6.62,7.832,6.62c4.978,0,7.443-2.857,7.79-6.62c0.088-0.824,0.13-1.688,0.13-2.644v-19.037h2.683V169.743z"/>
		<path fill="#646464" d="M448.742,152.781v27.649h-2.684v-27.649H435.11v-2.209h24.578v2.209H448.742z"/>
		<path fill="#646464" d="M467.321,180.431v-29.858h2.684v29.858H467.321z"/>
		<path fill="#646464" d="M506.49,165.502c0,8.999-5.151,15.534-13.89,15.534c-8.7,0-13.847-6.535-13.847-15.534    c0-9.088,5.147-15.536,13.847-15.536C501.339,149.966,506.49,156.414,506.49,165.502z M503.502,165.502    c0-8.393-4.453-13.372-10.901-13.372c-6.405,0-10.862,4.979-10.862,13.372c0,8.351,4.457,13.371,10.862,13.371    C499.049,178.873,503.502,173.853,503.502,165.502z"/>
		<path fill="#646464" d="M533.904,180.431l-15.54-27.262c0.089,3.679,0.135,8.132,0.135,11.856v15.405h-2.685v-29.858h4.066    l15.579,27.262c-0.087-3.721-0.133-8.132-0.133-11.856v-15.405h2.644l0.042,29.858H533.904z"/>
		<path fill="#646464" d="M583.775,166.496h-4.411v13.72c-2.466,0.519-5.412,0.82-7.92,0.82c-6.97,0-11.685-1.688-11.685-7.832    c0-4.023,2.9-7.097,7.357-7.875c-3.419-0.694-5.974-2.985-5.974-6.967c0-4.933,4.197-8.396,10.258-8.396    c2.121,0,3.549,0.131,5.193,0.435v2.204c-1.775-0.345-3.207-0.475-5.323-0.475c-4.285,0-7.143,2.336-7.143,6.099    c0,4.677,3.206,5.8,6.489,5.977c0.826,0.042,1.734,0.042,2.687,0.042h3.375v-5.496h2.685v5.496h4.411V166.496z M571.527,178.873    c1.777,0,3.465-0.131,5.152-0.434v-11.943h-3.375c-0.952,0-1.777,0-2.64,0.088c-4.979,0.432-7.917,2.511-7.917,6.232    C562.748,177.358,565.774,178.873,571.527,178.873z"/>
		<path fill="#646464" d="M629.152,165.24c0,9.437-5.884,14.281-11.727,15.018c-1.516,0.173-2.297,0.173-3.813,0.173h-8.738v-29.858    h8.873c1.557,0,2.247,0,3.59,0.13C623.395,151.393,629.152,155.721,629.152,165.24z M626.206,165.24    c0-7.66-4.195-11.596-9.129-12.29c-0.951-0.126-1.903-0.126-3.464-0.126h-6.054v25.354h5.928c1.472,0,2.508,0,3.679-0.169    C622.098,177.27,626.206,172.985,626.206,165.24z"/>
		<path fill="#646464" d="M638.476,180.431v-29.858h2.681v29.858H638.476z"/>
		<path fill="#646464" d="M675.564,166.453v13.978h-2.421v-6.145l-1.171,2.681c-1.989,2.77-5.146,4.069-8.74,4.069    c-8.221,0-13.326-6.317-13.326-15.403c0-9.177,5.754-15.667,14.02-15.667c7.184,0,11.032,4.239,11.857,9.912l0.043,0.43h-2.683    l-0.089-0.43c-0.908-4.546-3.893-7.748-9.217-7.748c-6.271,0-10.948,5.235-10.948,13.372c0,8.309,4.416,13.371,10.519,13.371    c4.758,0,9.475-3.464,9.475-10.215h-8.136v-2.205H675.564z"/>
		<path fill="#646464" d="M685.928,180.431v-29.858h2.681v29.858H685.928z"/>
		<path fill="#646464" d="M710.3,152.781v27.649h-2.686v-27.649h-10.947v-2.209h24.577v2.209H710.3z"/>
		<path fill="#646464" d="M732.685,169.483l-3.851,10.947h-2.855l11.033-29.858h3.59l10.775,29.858h-2.896l-3.897-10.947H732.685z     M743.809,167.231l-5.067-14.496l-5.277,14.496H743.809z"/>
		<path fill="#646464" d="M778.874,180.431h-19.345v-29.858h2.686v27.649h16.659V180.431z"/>
		<path fill="#646464" d="M787.239,180.431v-29.858h2.686v29.858H787.239z"/>
		<path fill="#646464" d="M820.266,180.431h-21.895v-2.076l18.52-25.53h-17.312v-2.252h20.43v2.209l-18.435,25.397h18.691V180.431z"/>
		<path fill="#646464" d="M832.742,169.483l-3.847,10.947h-2.857l11.031-29.858h3.594l10.775,29.858h-2.899l-3.894-10.947H832.742z     M843.866,167.231l-5.063-14.496l-5.278,14.496H843.866z"/>
		<path fill="#646464" d="M870.368,152.781v27.649h-2.685v-27.649h-10.949v-2.209h24.576v2.209H870.368z"/>
		<path fill="#646464" d="M888.946,180.431v-29.858h2.682v29.858H888.946z"/>
		<path fill="#646464" d="M928.114,165.502c0,8.999-5.147,15.534-13.889,15.534c-8.7,0-13.849-6.535-13.849-15.534    c0-9.088,5.148-15.536,13.849-15.536C922.967,149.966,928.114,156.414,928.114,165.502z M925.13,165.502    c0-8.393-4.46-13.372-10.904-13.372c-6.405,0-10.864,4.979-10.864,13.372c0,8.351,4.459,13.371,10.864,13.371    C920.67,178.873,925.13,173.853,925.13,165.502z"/>
		<path fill="#646464" d="M955.523,180.431l-15.53-27.262c0.084,3.679,0.127,8.132,0.127,11.856v15.405h-2.683v-29.858h4.069    l15.575,27.262c-0.084-3.721-0.128-8.132-0.128-11.856v-15.405h2.64l0.043,29.858H955.523z"/>
	</g>
</g>
</svg>